<svg xmlns="http://www.w3.org/2000/svg" viewBox="0 0 64 64"><linearGradient id="a" gradientUnits="userSpaceOnUse" x1="32.017" y1="30.698" x2="32.017" y2="6.101" gradientTransform="matrix(1 0 0 -1 0 66)"><stop offset="0" stop-color="#ef8080"/><stop offset="1" stop-color="#f0145a"/></linearGradient><path d="M55 35.3v18.6c0 3.3-2.6 6-5.8 6H14.8c-3.2 0-5.8-2.7-5.8-6V35.3h17.9v8.1l5.1 3.4 5.1-3.4v-8.1H55z" fill-rule="evenodd" clip-rule="evenodd" fill="url(#a)"/><linearGradient id="b" gradientUnits="userSpaceOnUse" x1="32.017" y1="30.698" x2="32.017" y2="21.423" gradientTransform="matrix(1 0 0 -1 0 66)"><stop offset="0" stop-color="#ef8080"/><stop offset="1" stop-color="#f0145a"/></linearGradient><path d="M28.7 35.3v7.1l3.3 2.2 3.3-2.2v-7.1h-6.6z" fill-rule="evenodd" clip-rule="evenodd" fill="url(#b)"/><linearGradient id="c" gradientUnits="userSpaceOnUse" x1="32.017" y1="52.086" x2="32.017" y2="32.94" gradientTransform="matrix(1 0 0 -1 0 66)"><stop offset="0" stop-color="#ef8080"/><stop offset="1" stop-color="#f0145a"/></linearGradient><path d="M10.6 13.9h42.8c2 0 3.7 1.8 3.7 4.1v11c0 2.2-1.7 4.1-3.7 4.1H10.6c-2 0-3.7-1.8-3.7-4.1V18c0-2.3 1.7-4.1 3.7-4.1z" fill-rule="evenodd" clip-rule="evenodd" fill="url(#c)"/><linearGradient id="d" gradientUnits="userSpaceOnUse" x1="32.017" y1="61.944" x2="32.017" y2="54.237" gradientTransform="matrix(1 0 0 -1 0 66)"><stop offset="0" stop-color="#ef8080"/><stop offset="1" stop-color="#f0145a"/></linearGradient><path d="M23.1 4.1h17.8c1.7 0 3 1.4 3 3v4.7h-3.8V9c0-.7-.6-1.4-1.4-1.4H25.3c-.7 0-1.4.6-1.4 1.4v2.8h-3.8V7.1c0-1.7 1.4-3 3-3z" fill-rule="evenodd" clip-rule="evenodd" fill="url(#d)"/></svg>