<svg xmlns="http://www.w3.org/2000/svg" viewBox="0 0 64 64"><path d="M58.7 37.4c-.6-.3-1.3-.4-2-.4-1.5 0-2.9.7-3.9 1.7l-1.1-.5-3.3-1.4c.5-1.5.7-3.2.7-4.9 0-1.7-.3-3.3-.7-4.9l3.3-1.4 1.1-.5c1 1.1 2.4 1.7 3.9 1.7.7 0 1.4-.1 2-.4 2.7-1.1 4-4.2 2.9-6.9-.8-2-2.7-3.3-4.9-3.3-.7 0-1.4.1-2 .4-2.1.9-3.4 3-3.2 5.2l-1.2.5-3.3 1.6c-1.6-2.9-4-5.3-6.9-6.9l1.4-3.3.5-1.1h.3c2.1 0 4.1-1.3 4.9-3.3 1.1-2.7-.2-5.8-2.9-6.9-.6-.3-1.3-.4-2-.4-2.1 0-4.1 1.3-4.9 3.3-.9 2.1-.3 4.5 1.3 5.9l-.5 1.1-1.4 3.3c-1.5-.5-3.2-.7-4.9-.7s-3.3.3-4.9.7l-1.4-3.3-.5-1.1c1.6-1.5 2.2-3.8 1.3-5.9-.8-2-2.7-3.3-4.9-3.3-.7 0-1.4.1-2 .4-2.7 1.1-4 4.2-2.9 6.9.8 2 2.7 3.3 4.9 3.3h.3l.5 1.1 1.4 3.3c-2.9 1.6-5.3 4-6.9 6.9l-3.3-1.4-1-.5c.1-2.2-1.1-4.3-3.2-5.2-.6-.3-1.3-.4-2-.4-2.1 0-4.1 1.3-4.9 3.3-1.1 2.7.2 5.8 2.9 6.9.6.3 1.3.4 2 .4 1.5 0 2.9-.7 3.9-1.7l1.1.5 3.3 1.4c-.5 1.5-.7 3.2-.7 4.9 0 1.7.2 3.3.7 4.9l-3.3 1.4-1.1.5c-1-1.1-2.4-1.7-3.9-1.7-.7 0-1.4.1-2 .4-2.7 1.1-4 4.2-2.9 6.9.8 2 2.7 3.3 4.9 3.3.7 0 1.4-.1 2-.4 2.1-.9 3.4-3 3.2-5.2l1.2-.5 3.3-1.4c1.6 2.9 4 5.3 6.9 6.9l-1.4 3.3-.5 1h-.3c-2.1 0-4.1 1.3-4.9 3.3-1.1 2.7.2 5.8 2.9 6.9.6.3 1.3.4 2 .4 2.1 0 4.1-1.3 4.9-3.3.9-2.1.3-4.5-1.3-5.9l.5-1.1 1.4-3.3c1.5.5 3.2.7 4.9.7 1.7 0 3.3-.2 4.9-.7l1.4 3.3.5 1.1c-1.6 1.5-2.2 3.8-1.3 5.9.8 2 2.7 3.3 4.9 3.3.7 0 1.4-.1 2-.4 2.7-1.1 4-4.2 2.9-6.9-.8-2-2.7-3.3-4.9-3.3h-.3l-.5-1.1-1.6-3.4c2.9-1.6 5.3-4 6.9-6.9l3.3 1.4 1.2.5c-.1 2.2 1.1 4.3 3.2 5.2.6.3 1.3.4 2 .4 2.1 0 4.1-1.3 4.9-3.3 1.1-2.7-.2-5.8-2.9-6.9zM32 45.6c-7.5 0-13.6-6.1-13.6-13.6S24.5 18.4 32 18.4 45.6 24.5 45.6 32 39.5 45.6 32 45.6z"/><linearGradient id="a" gradientUnits="userSpaceOnUse" x1="32" y1="64.001" x2="32" y2="3.999" gradientTransform="matrix(1 0 0 -1 0 66)"><stop offset="0" stop-color="#ef8080"/><stop offset="1" stop-color="#f0145a"/></linearGradient><path d="M58.7 37.4c-.6-.3-1.3-.4-2-.4-1.5 0-2.9.7-3.9 1.7l-1.1-.5-3.3-1.4c.5-1.5.7-3.2.7-4.9 0-1.7-.3-3.3-.7-4.9l3.3-1.4 1.1-.5c1 1.1 2.4 1.7 3.9 1.7.7 0 1.4-.1 2-.4 2.7-1.1 4-4.2 2.9-6.9-.8-2-2.7-3.3-4.9-3.3-.7 0-1.4.1-2 .4-2.1.9-3.4 3-3.2 5.2l-1.2.5-3.3 1.6c-1.6-2.9-4-5.3-6.9-6.9l1.4-3.3.5-1.1h.3c2.1 0 4.1-1.3 4.9-3.3 1.1-2.7-.2-5.8-2.9-6.9-.6-.3-1.3-.4-2-.4-2.1 0-4.1 1.3-4.9 3.3-.9 2.1-.3 4.5 1.3 5.9l-.5 1.1-1.4 3.3c-1.5-.5-3.2-.7-4.9-.7s-3.3.3-4.9.7l-1.4-3.3-.5-1.1c1.6-1.5 2.2-3.8 1.3-5.9-.8-2-2.7-3.3-4.9-3.3-.7 0-1.4.1-2 .4-2.7 1.1-4 4.2-2.9 6.9.8 2 2.7 3.3 4.9 3.3h.3l.5 1.1 1.4 3.3c-2.9 1.6-5.3 4-6.9 6.9l-3.3-1.4-1-.5c.1-2.2-1.1-4.3-3.2-5.2-.6-.3-1.3-.4-2-.4-2.1 0-4.1 1.3-4.9 3.3-1.1 2.7.2 5.8 2.9 6.9.6.3 1.3.4 2 .4 1.5 0 2.9-.7 3.9-1.7l1.1.5 3.3 1.4c-.5 1.5-.7 3.2-.7 4.9 0 1.7.2 3.3.7 4.9l-3.3 1.4-1.1.5c-1-1.1-2.4-1.7-3.9-1.7-.7 0-1.4.1-2 .4-2.7 1.1-4 4.2-2.9 6.9.8 2 2.7 3.3 4.9 3.3.7 0 1.4-.1 2-.4 2.1-.9 3.4-3 3.2-5.2l1.2-.5 3.3-1.4c1.6 2.9 4 5.3 6.9 6.9l-1.4 3.3-.5 1h-.3c-2.1 0-4.1 1.3-4.9 3.3-1.1 2.7.2 5.8 2.9 6.9.6.3 1.3.4 2 .4 2.1 0 4.1-1.3 4.9-3.3.9-2.1.3-4.5-1.3-5.9l.5-1.1 1.4-3.3c1.5.5 3.2.7 4.9.7 1.7 0 3.3-.2 4.9-.7l1.4 3.3.5 1.1c-1.6 1.5-2.2 3.8-1.3 5.9.8 2 2.7 3.3 4.9 3.3.7 0 1.4-.1 2-.4 2.7-1.1 4-4.2 2.9-6.9-.8-2-2.7-3.3-4.9-3.3h-.3l-.5-1.1-1.6-3.4c2.9-1.6 5.3-4 6.9-6.9l3.3 1.4 1.2.5c-.1 2.2 1.1 4.3 3.2 5.2.6.3 1.3.4 2 .4 2.1 0 4.1-1.3 4.9-3.3 1.1-2.7-.2-5.8-2.9-6.9zM32 45.6c-7.5 0-13.6-6.1-13.6-13.6S24.5 18.4 32 18.4 45.6 24.5 45.6 32 39.5 45.6 32 45.6z" fill="url(#a)"/><path d="M32 21.9c-5.6 0-10.1 4.5-10.1 10.1S26.4 42.1 32 42.1 42.1 37.6 42.1 32 37.6 21.9 32 21.9zm1.8 14h-3.5v-7.7h3.5v7.7z"/><linearGradient id="b" gradientUnits="userSpaceOnUse" x1="32" y1="44.079" x2="32" y2="23.922" gradientTransform="matrix(1 0 0 -1 0 66)"><stop offset="0" stop-color="#ef8080"/><stop offset="1" stop-color="#f0145a"/></linearGradient><path d="M32 21.9c-5.6 0-10.1 4.5-10.1 10.1S26.4 42.1 32 42.1 42.1 37.6 42.1 32 37.6 21.9 32 21.9zm1.8 14h-3.5v-7.7h3.5v7.7z" fill="url(#b)"/></svg>