<svg xmlns="http://www.w3.org/2000/svg" viewBox="0 0 64 64"><path d="M41.9 55.8h-19v6h19v-6z"/><linearGradient id="a" gradientUnits="userSpaceOnUse" x1="32.363" y1="10.161" x2="32.363" y2="4.161" gradientTransform="matrix(1 0 0 -1 0 66)"><stop offset="0" stop-color="#ef8080"/><stop offset="1" stop-color="#f0145a"/></linearGradient><path d="M41.9 55.8h-19v6h19v-6z" fill="url(#a)"/><path d="M15 2.3L1.6 15.7l3.5 3.5L18.6 5.8 15 2.3z"/><linearGradient id="b" gradientUnits="userSpaceOnUse" x1="8.312" y1="56.991" x2="11.848" y2="53.456" gradientTransform="matrix(1 0 0 -1 0 66)"><stop offset="0" stop-color="#ef8080"/><stop offset="1" stop-color="#f0145a"/></linearGradient><path d="M15 2.3L1.6 15.7l3.5 3.5L18.6 5.8 15 2.3z" fill="url(#b)"/><path d="M49 2.2l-3.5 3.5 13.4 13.4 3.5-3.5L49 2.2z"/><linearGradient id="c" gradientUnits="userSpaceOnUse" x1="47.202" y1="62.071" x2="60.637" y2="48.636" gradientTransform="matrix(1 0 0 -1 0 66)"><stop offset="0" stop-color="#ef8080"/><stop offset="1" stop-color="#f0145a"/></linearGradient><path d="M49 2.2l-3.5 3.5 13.4 13.4 3.5-3.5L49 2.2z" fill="url(#c)"/><path d="M44.4 9.5l-2.7-.1c-.8-.1-1.6 0-2.3.2-.7.2-1.4.7-2 1.2l-5.5 5.5-5.8-5.8c-.5-.5-1.1-.8-1.8-1-.7-.2-1.4-.1-2.1.1-.6.2-1.3.2-1.9 0-.6-.2-1.2-.5-1.7-1l-.9-.9L7.3 18.6 9 20.3 8.9 23c-.1.8 0 1.6.2 2.3.2.7.7 1.4 1.2 2l9.6 9.6c.1-1.3.7-2.4 1.7-3.3l-3-3 .7-.7 3.1 3.1c.4-.3.9-.4 1.4-.5v-3.7l-1.7-1.7.7-.7 1 1V22c0-.9.3-1.7.9-2.4.6-.7 1.4-1.1 2.3-1.2h1l-1.2-1.2.7-.7 1.8 1.8c.3-.6.8-1.1 1.4-1.5.6-.3 1.3-.5 2-.4.8.1 1.6.5 2.2 1.1.6.6.9 1.4 1 2.2.6-.3 1.2-.4 1.8-.3.9.1 1.7.5 2.3 1.2.6.7.9 1.5.9 2.4v3.4c.9.2 1.7.6 2.4 1.3.7.6 1.2 1.5 1.4 2.4l2.8-2.8.7.7-3.3 3.3v3.3c.9-.1 1.7-.5 2.4-1.1l6.8-6.8c.5-.5.8-1.1 1-1.8.2-.7.1-1.4-.1-2.1-.2-.6-.2-1.3 0-1.9.2-.6.5-1.2 1-1.7l.9-.9L46.1 7.8l-1.7 1.7z"/><linearGradient id="d" gradientUnits="userSpaceOnUse" x1="32" y1="58.182" x2="32" y2="29.13" gradientTransform="matrix(1 0 0 -1 0 66)"><stop offset="0" stop-color="#ef8080"/><stop offset="1" stop-color="#f0145a"/></linearGradient><path d="M44.4 9.5l-2.7-.1c-.8-.1-1.6 0-2.3.2-.7.2-1.4.7-2 1.2l-5.5 5.5-5.8-5.8c-.5-.5-1.1-.8-1.8-1-.7-.2-1.4-.1-2.1.1-.6.2-1.3.2-1.9 0-.6-.2-1.2-.5-1.7-1l-.9-.9L7.3 18.6 9 20.3 8.9 23c-.1.8 0 1.6.2 2.3.2.7.7 1.4 1.2 2l9.6 9.6c.1-1.3.7-2.4 1.7-3.3l-3-3 .7-.7 3.1 3.1c.4-.3.9-.4 1.4-.5v-3.7l-1.7-1.7.7-.7 1 1V22c0-.9.3-1.7.9-2.4.6-.7 1.4-1.1 2.3-1.2h1l-1.2-1.2.7-.7 1.8 1.8c.3-.6.8-1.1 1.4-1.5.6-.3 1.3-.5 2-.4.8.1 1.6.5 2.2 1.1.6.6.9 1.4 1 2.2.6-.3 1.2-.4 1.8-.3.9.1 1.7.5 2.3 1.2.6.7.9 1.5.9 2.4v3.4c.9.2 1.7.6 2.4 1.3.7.6 1.2 1.5 1.4 2.4l2.8-2.8.7.7-3.3 3.3v3.3c.9-.1 1.7-.5 2.4-1.1l6.8-6.8c.5-.5.8-1.1 1-1.8.2-.7.1-1.4-.1-2.1-.2-.6-.2-1.3 0-1.9.2-.6.5-1.2 1-1.7l.9-.9L46.1 7.8l-1.7 1.7z" fill="url(#d)"/><path d="M29.7 21.5c-.1-.6-.4-1.2-.9-1.7-.5-.4-1.2-.6-1.8-.5-.6.1-1.2.4-1.6.9-.4.5-.6 1.1-.6 1.7v11.4c-1.1 0-2.1.4-2.8 1.2-.8.8-1.2 1.8-1.2 2.8V47c0 .7.2 1.4.6 2 .4.6.9 1.1 1.5 1.4.6.3 1.1.8 1.4 1.3.3.6.5 1.2.5 1.9v1.2h15v-2.4l2-1.8c.6-.5 1.1-1.1 1.5-1.8.3-.7.5-1.5.5-2.3V31.3c0-1.1-.4-2.1-1.2-2.8-.8-.8-1.8-1.2-2.8-1.2V23c0-.6-.2-1.3-.6-1.8-.4-.5-1-.8-1.6-.9-.6-.1-1.3.1-1.8.5s-.8 1-.9 1.6h.5v15.4h-1V22.4h.5V20c0-.6-.2-1.3-.6-1.8-.4-.5-1-.8-1.6-.9-.3 0-.7 0-1 .1-.3.1-.6.3-.9.5-.3.2-.5.5-.6.8-.1.3-.2.7-.2 1l-.3 1.8h.5V37h-1V21.5h.5zm-4.5 20.4h-1v-8h1v8zm14.1-14.3h1V38h-1V27.6z"/><linearGradient id="e" gradientUnits="userSpaceOnUse" x1="32.27" y1="48.673" x2="32.27" y2="11.229" gradientTransform="matrix(1 0 0 -1 0 66)"><stop offset="0" stop-color="#ef8080"/><stop offset="1" stop-color="#f0145a"/></linearGradient><path d="M29.7 21.5c-.1-.6-.4-1.2-.9-1.7-.5-.4-1.2-.6-1.8-.5-.6.1-1.2.4-1.6.9-.4.5-.6 1.1-.6 1.7v11.4c-1.1 0-2.1.4-2.8 1.2-.8.8-1.2 1.8-1.2 2.8V47c0 .7.2 1.4.6 2 .4.6.9 1.1 1.5 1.4.6.3 1.1.8 1.4 1.3.3.6.5 1.2.5 1.9v1.2h15v-2.4l2-1.8c.6-.5 1.1-1.1 1.5-1.8.3-.7.5-1.5.5-2.3V31.3c0-1.1-.4-2.1-1.2-2.8-.8-.8-1.8-1.2-2.8-1.2V23c0-.6-.2-1.3-.6-1.8-.4-.5-1-.8-1.6-.9-.6-.1-1.3.1-1.8.5s-.8 1-.9 1.6h.5v15.4h-1V22.4h.5V20c0-.6-.2-1.3-.6-1.8-.4-.5-1-.8-1.6-.9-.3 0-.7 0-1 .1-.3.1-.6.3-.9.5-.3.2-.5.5-.6.8-.1.3-.2.7-.2 1l-.3 1.8h.5V37h-1V21.5h.5zm-4.5 20.4h-1v-8h1v8zm14.1-14.3h1V38h-1V27.6z" fill="url(#e)"/></svg>