<svg xmlns="http://www.w3.org/2000/svg" viewBox="0 0 64 64"><linearGradient id="a" gradientUnits="userSpaceOnUse" x1="41.859" y1="65.079" x2="41.859" y2="48.274" gradientTransform="matrix(1 0 0 -1 0 66)"><stop offset="0" stop-color="#ef8080"/><stop offset="1" stop-color="#f0145a"/></linearGradient><path d="M42.7 17c1 1 2.5 1 3.4 0l3.4-3.4c.9-1 .9-2.5 0-3.4L41 1.6c-.9-1-2.5-1-3.4 0L34.2 5c-.9 1-.9 2.5 0 3.4l8.5 8.6z" fill="url(#a)"/><linearGradient id="b" gradientUnits="userSpaceOnUse" x1="21.616" y1="44.458" x2="21.616" y2="27.656" gradientTransform="matrix(1 0 0 -1 0 66)"><stop offset="0" stop-color="#ef8080"/><stop offset="1" stop-color="#f0145a"/></linearGradient><path d="M22.5 37.6c.9.9 2.5.9 3.4 0l3.4-3.4c1-.9 1-2.5 0-3.4l-8.5-8.5c-.9-.9-2.5-1-3.4 0L14 25.7c-1 1-.9 2.5 0 3.4l8.5 8.5z" fill="url(#b)"/><linearGradient id="c" gradientUnits="userSpaceOnUse" x1="42.251" y1="55.939" x2="42.251" y2="16.518" gradientTransform="matrix(1 0 0 -1 0 66)"><stop offset="0" stop-color="#ef8080"/><stop offset="1" stop-color="#f0145a"/></linearGradient><path d="M61.3 38.4L57.8 35c-1-.9-2.5-.9-3.4 0l-1.5 1.5L38.3 22l3.2-3.2-8.7-8.7-3.2 3.2-4 4-3.1 3.1 8.7 8.7 3.1-3.1 14.6 14.6-1.4 1.4c-1 .9-1 2.5 0 3.4l3.4 3.4c1 1 2.5 1 3.4 0l6.9-6.9c1-1 1-2.5.1-3.5z" fill="url(#c)"/><linearGradient id="d" gradientUnits="userSpaceOnUse" x1="21.844" y1="19.921" x2="21.844" y2="2.921" gradientTransform="matrix(1 0 0 -1 0 66)"><stop offset="0" stop-color="#ef8080"/><stop offset="1" stop-color="#f0145a"/></linearGradient><path d="M35.9 48.9c0-1.6-1.3-2.8-2.8-2.8H11c-1.6 0-2.8 1.3-2.8 2.8v4.6H2v9.6h39.7v-9.6h-5.8v-4.6z" fill="url(#d)"/></svg>