<svg xmlns="http://www.w3.org/2000/svg" viewBox="0 0 64 64"><linearGradient id="a" gradientUnits="userSpaceOnUse" x1="32" y1="64" x2="32" y2="11.322" gradientTransform="matrix(1 0 0 -1 0 66)"><stop offset="0" stop-color="#ef8080"/><stop offset="1" stop-color="#f0145a"/></linearGradient><path d="M41.4 35.8c2.4 0 4.8.6 6.8 1.7.4.2.7.4 1.1.7 3.4-6.7 5.2-13.7 5.2-20.6v-1.2c0-.6-.4-1-1-1.2C46 13.6 39.1 9.5 33.7 3.4l-.8-.9c-.2-.3-.5-.5-.9-.5s-.7.1-.9.4l-1.2 1.3C24.8 9.4 18.3 13.2 11.3 15l-.8.2c-.5.1-.9.6-.9 1.2C9.2 34 19.5 46.6 24 51.2c1.2 1.2 2.6 2.5 3.8 3.5-.5-1.5-.8-3-.8-4.6 0-7.9 6.4-14.3 14.4-14.3z" fill="url(#a)"/><linearGradient id="b" gradientUnits="userSpaceOnUse" x1="41.374" y1="27.747" x2="41.374" y2="4" gradientTransform="matrix(1 0 0 -1 0 66)"><stop offset="0" stop-color="#ef8080"/><stop offset="1" stop-color="#f0145a"/></linearGradient><path d="M47 39.7c-1.7-.9-3.7-1.4-5.6-1.4-6.5 0-11.9 5.3-11.9 11.9 0 2.2.6 4.4 1.7 6.2 2.2 3.5 6 5.6 10.1 5.6 6.5 0 11.9-5.3 11.9-11.9 0-4.3-2.3-8.3-6.2-10.4zm.5 8.8l-9.3 7.2-3.2-5c-.4-.6-.2-1.4.4-1.7.6-.4 1.4-.2 1.7.4l1.7 2.6 7.1-5.5c.5-.4 1.3-.3 1.8.2.4.6.3 1.4-.2 1.8z" fill="url(#b)"/></svg>