<svg xmlns="http://www.w3.org/2000/svg" viewBox="0 0 64 64"><linearGradient id="a" gradientUnits="userSpaceOnUse" x1="32.074" y1="64.265" x2="32.074" y2="38.886" gradientTransform="matrix(1 0 0 -1 0 66)"><stop offset="0" stop-color="#ef8080"/><stop offset="1" stop-color="#f0145a"/></linearGradient><path d="M21.6 27.1c1.4 0 2.5-1.1 2.5-2.5v-9.8c0-4.4 3.6-8 8-8s8 3.6 8 8v9.8c0 1.4 1.1 2.5 2.5 2.5s2.5-1.1 2.5-2.5v-9.8c0-7.2-5.8-13-13-13s-13 5.8-13 13v9.8c0 1.4 1.1 2.5 2.5 2.5z" fill="url(#a)"/><linearGradient id="b" gradientUnits="userSpaceOnUse" x1="32" y1="44.554" x2="32" y2="3.735" gradientTransform="matrix(1 0 0 -1 0 66)"><stop offset="0" stop-color="#ef8080"/><stop offset="1" stop-color="#f0145a"/></linearGradient><path d="M61 21.4H47.6v3.1c0 2.8-2.3 5-5 5s-5-2.3-5-5v-3.1h-11v3.1c0 2.8-2.3 5-5 5-2.8 0-5-2.3-5-5v-3.1H3c-.7 0-1.1.5-1 1.2l8.8 35.9c.5 2 2.7 3.7 4.7 3.7h32.8c2.1 0 4.2-1.6 4.7-3.7l9-35.8c.1-.7-.3-1.3-1-1.3z" fill="url(#b)"/><path d="M27.7 35c0-1 .8-1.8 1.8-1.8s1.8.8 1.8 1.8v8.8-1.7c0-1 .8-1.8 1.8-1.8s1.8.8 1.8 1.8v2.1c0-1 .8-3 1.8-3s1.8.8 1.8 1.8c0 0 .1 1.3.2 1.4.3-.6.9-2.3 1.6-2.3 1 0 1.8.8 1.8 1.8v8.8c0 1.9-1.6 3.5-3.5 3.5h-5.9c-1.9 0-3.7-.7-5-2.1l-2.8-2.8-4-1.8c0-1.7 1.3-2.2 2.6-2.2 1.1 0 2.2.2 4.4 1.3L27.7 35z" fill="#fff"/></svg>