<svg width="337" height="292" viewBox="0 0 337 292" fill="none" xmlns="http://www.w3.org/2000/svg">
<path d="M10.1104 279.36H4.35352V288H5.61035V280.529H10.1104V279.36ZM18.6621 283.685C18.6621 284.616 18.3457 285.407 17.7305 286.049C17.1152 286.69 16.3682 287.007 15.5068 287.007C14.6455 287.007 13.8984 286.69 13.2832 286.04C12.668 285.39 12.3604 284.607 12.3604 283.676C12.3604 282.744 12.668 281.962 13.2832 281.32C13.8984 280.679 14.6455 280.354 15.5068 280.354C16.3682 280.354 17.1152 280.679 17.7305 281.32C18.3457 281.962 18.6621 282.753 18.6621 283.685ZM11.1035 283.685C11.1035 284.95 11.5254 286.014 12.3867 286.884C13.248 287.745 14.2852 288.185 15.5156 288.185C16.7373 288.185 17.7744 287.745 18.627 286.884C19.4883 286.014 19.9102 284.95 19.9102 283.685C19.9102 282.419 19.4883 281.355 18.627 280.485C17.7744 279.615 16.7373 279.176 15.5156 279.176C14.2852 279.176 13.248 279.615 12.3867 280.485C11.5254 281.355 11.1035 282.419 11.1035 283.685ZM30.1846 286.831H28.8311V279.36H22.8984V281.883C22.8984 282.516 22.8369 283.131 22.7314 283.711C22.626 284.291 22.5029 284.757 22.3623 285.108C22.2217 285.46 22.0723 285.776 21.8965 286.075C21.7207 286.374 21.5889 286.567 21.5186 286.655C21.4482 286.743 21.3955 286.796 21.3604 286.831H20.7363V290.162H21.9932V288H28.9277V290.162H30.1846V286.831ZM24.1553 280.529H27.5742V286.831H22.7139L23.0742 286.33C23.3115 285.996 23.5488 285.416 23.7861 284.59C24.0322 283.772 24.1465 282.867 24.1465 281.883L24.1553 280.529ZM38.6396 279.36L33.4189 285.838V279.36H32.1621V288H33.2344L38.4551 281.522V288H39.7207V279.36H38.6396ZM48.8086 288H50.0742V279.36H48.8086V283.052H43.8604V279.36H42.6035V288H43.8604V284.221H48.8086V288ZM57.6416 283.685C57.6416 282.797 57.9492 282.023 58.582 281.355C59.2148 280.688 59.918 280.354 60.7002 280.354C61.4385 280.354 62.1064 280.679 62.6953 281.329C63.2842 281.979 63.583 282.762 63.583 283.685C63.583 284.607 63.2842 285.39 62.6953 286.04C62.1064 286.69 61.4385 287.007 60.7002 287.007C59.918 287.007 59.2148 286.682 58.582 286.014C57.9492 285.346 57.6416 284.572 57.6416 283.685ZM57.6416 286.646L57.7646 286.813C57.8525 286.919 57.9756 287.051 58.1514 287.2C58.3271 287.35 58.5293 287.499 58.7666 287.64C58.9951 287.789 59.2852 287.912 59.6279 288.018C59.9707 288.123 60.3311 288.176 60.7002 288.176C61.8076 288.176 62.7744 287.736 63.6006 286.857C64.4268 285.979 64.8398 284.915 64.8398 283.685C64.8398 282.454 64.418 281.391 63.5918 280.512C62.7656 279.624 61.7988 279.185 60.7002 279.185C60.3311 279.185 59.9707 279.237 59.6191 279.343C59.2676 279.448 58.9863 279.571 58.7666 279.712C58.5381 279.853 58.3359 280.011 58.1426 280.187C57.9492 280.362 57.8262 280.485 57.7646 280.556C57.7031 280.626 57.6592 280.688 57.6416 280.723V279.369H56.3848V291.788H57.6416V286.646ZM74.0156 283.685C74.0156 284.616 73.6992 285.407 73.084 286.049C72.4688 286.69 71.7217 287.007 70.8604 287.007C69.999 287.007 69.252 286.69 68.6367 286.04C68.0215 285.39 67.7139 284.607 67.7139 283.676C67.7139 282.744 68.0215 281.962 68.6367 281.32C69.252 280.679 69.999 280.354 70.8604 280.354C71.7217 280.354 72.4688 280.679 73.084 281.32C73.6992 281.962 74.0156 282.753 74.0156 283.685ZM66.457 283.685C66.457 284.95 66.8789 286.014 67.7402 286.884C68.6016 287.745 69.6387 288.185 70.8691 288.185C72.0908 288.185 73.1279 287.745 73.9805 286.884C74.8418 286.014 75.2637 284.95 75.2637 283.685C75.2637 282.419 74.8418 281.355 73.9805 280.485C73.1279 279.615 72.0908 279.176 70.8691 279.176C69.6387 279.176 68.6016 279.615 67.7402 280.485C66.8789 281.355 66.457 282.419 66.457 283.685ZM85.7139 283.86C85.7139 282.665 85.3096 281.646 84.501 280.802C83.6924 279.958 82.7168 279.536 81.5742 279.536C81.1875 279.536 80.8184 279.606 80.4668 279.729C80.1152 279.853 79.8252 279.993 79.6055 280.143C79.377 280.301 79.1748 280.468 78.9902 280.661C78.8057 280.854 78.6826 280.986 78.6299 281.065C78.5771 281.145 78.5332 281.206 78.5156 281.25C78.5596 280.037 78.876 279.079 79.4561 278.376C80.0361 277.673 80.8096 277.216 81.7588 277.022C83.5518 276.671 84.6943 276.275 85.1777 275.854L84.5449 274.86L84.2812 275.019C84.1055 275.133 83.7715 275.273 83.2793 275.44C82.7783 275.616 82.207 275.748 81.5742 275.854C78.6387 276.381 77.1709 278.631 77.1709 282.604C77.1709 284.379 77.5664 285.759 78.375 286.726C79.1748 287.692 80.2119 288.176 81.4863 288.176C82.6641 288.176 83.6572 287.763 84.4834 286.928C85.3008 286.102 85.7139 285.073 85.7139 283.86ZM78.5156 283.86C78.5156 282.973 78.8057 282.226 79.3857 281.619C79.9658 281.021 80.6689 280.714 81.4863 280.714C82.2949 280.714 82.998 281.021 83.5781 281.619C84.1582 282.226 84.457 282.973 84.457 283.86C84.457 284.757 84.1582 285.504 83.5781 286.102C82.998 286.708 82.2949 287.007 81.4863 287.007C80.6689 287.007 79.9658 286.708 79.3857 286.102C78.8057 285.504 78.5156 284.757 78.5156 283.86ZM94.9863 283.685C94.9863 284.616 94.6699 285.407 94.0547 286.049C93.4395 286.69 92.6924 287.007 91.8311 287.007C90.9697 287.007 90.2227 286.69 89.6074 286.04C88.9922 285.39 88.6846 284.607 88.6846 283.676C88.6846 282.744 88.9922 281.962 89.6074 281.32C90.2227 280.679 90.9697 280.354 91.8311 280.354C92.6924 280.354 93.4395 280.679 94.0547 281.32C94.6699 281.962 94.9863 282.753 94.9863 283.685ZM87.4277 283.685C87.4277 284.95 87.8496 286.014 88.7109 286.884C89.5723 287.745 90.6094 288.185 91.8398 288.185C93.0615 288.185 94.0986 287.745 94.9512 286.884C95.8125 286.014 96.2344 284.95 96.2344 283.685C96.2344 282.419 95.8125 281.355 94.9512 280.485C94.0986 279.615 93.0615 279.176 91.8398 279.176C90.6094 279.176 89.5723 279.615 88.7109 280.485C87.8496 281.355 87.4277 282.419 87.4277 283.685ZM97.4209 280.529H100.479V288H101.736V280.529H104.795V279.36H97.4209V280.529ZM113.083 279.36L107.862 285.838V279.36H106.605V288H107.678L112.898 281.522V288H114.164V279.36H113.083ZM122.004 286.646H123.349L121.283 283.676L123.349 280.714H122.004L119.93 283.676L122.004 286.646ZM125.335 286.646H126.68L124.614 283.676L126.68 280.714H125.335L123.261 283.676L125.335 286.646ZM130.099 283.685C130.099 282.797 130.406 282.023 131.039 281.355C131.672 280.688 132.375 280.354 133.157 280.354C133.896 280.354 134.563 280.679 135.152 281.329C135.741 281.979 136.04 282.762 136.04 283.685C136.04 284.607 135.741 285.39 135.152 286.04C134.563 286.69 133.896 287.007 133.157 287.007C132.375 287.007 131.672 286.682 131.039 286.014C130.406 285.346 130.099 284.572 130.099 283.685ZM130.099 286.646L130.222 286.813C130.31 286.919 130.433 287.051 130.608 287.2C130.784 287.35 130.986 287.499 131.224 287.64C131.452 287.789 131.742 287.912 132.085 288.018C132.428 288.123 132.788 288.176 133.157 288.176C134.265 288.176 135.231 287.736 136.058 286.857C136.884 285.979 137.297 284.915 137.297 283.685C137.297 282.454 136.875 281.391 136.049 280.512C135.223 279.624 134.256 279.185 133.157 279.185C132.788 279.185 132.428 279.237 132.076 279.343C131.725 279.448 131.443 279.571 131.224 279.712C130.995 279.853 130.793 280.011 130.6 280.187C130.406 280.362 130.283 280.485 130.222 280.556C130.16 280.626 130.116 280.688 130.099 280.723V279.369H128.842V291.788H130.099V286.646ZM144.047 279.176H143.687C143.309 279.176 142.948 279.229 142.614 279.325C142.28 279.422 142.008 279.527 141.806 279.65C141.604 279.773 141.419 279.905 141.243 280.063C141.067 280.222 140.953 280.327 140.909 280.389C140.856 280.45 140.821 280.503 140.804 280.538V279.369H139.547V288.009H140.804V283.236C140.804 282.41 141.067 281.733 141.595 281.224C142.122 280.705 142.755 280.45 143.502 280.45H144.047V279.176ZM152.678 283.685C152.678 284.616 152.361 285.407 151.746 286.049C151.131 286.69 150.384 287.007 149.522 287.007C148.661 287.007 147.914 286.69 147.299 286.04C146.684 285.39 146.376 284.607 146.376 283.676C146.376 282.744 146.684 281.962 147.299 281.32C147.914 280.679 148.661 280.354 149.522 280.354C150.384 280.354 151.131 280.679 151.746 281.32C152.361 281.962 152.678 282.753 152.678 283.685ZM145.119 283.685C145.119 284.95 145.541 286.014 146.402 286.884C147.264 287.745 148.301 288.185 149.531 288.185C150.753 288.185 151.79 287.745 152.643 286.884C153.504 286.014 153.926 284.95 153.926 283.685C153.926 282.419 153.504 281.355 152.643 280.485C151.79 279.615 150.753 279.176 149.531 279.176C148.301 279.176 147.264 279.615 146.402 280.485C145.541 281.355 145.119 282.419 145.119 283.685ZM160.966 283.685C160.966 282.797 161.273 282.023 161.906 281.355C162.539 280.688 163.242 280.354 164.024 280.354C164.763 280.354 165.431 280.679 166.02 281.329C166.608 281.979 166.907 282.762 166.907 283.685C166.907 284.607 166.608 285.39 166.02 286.04C165.431 286.69 164.763 287.007 164.024 287.007C163.242 287.007 162.539 286.682 161.906 286.014C161.273 285.346 160.966 284.572 160.966 283.685ZM160.966 275.396H159.709V288H160.966V286.646L161.098 286.813C161.177 286.919 161.3 287.051 161.476 287.2C161.651 287.35 161.854 287.499 162.091 287.64C162.319 287.789 162.609 287.912 162.952 288.018C163.295 288.123 163.655 288.176 164.024 288.176C165.132 288.176 166.099 287.736 166.925 286.857C167.751 285.979 168.164 284.915 168.164 283.685C168.164 282.454 167.742 281.391 166.916 280.512C166.09 279.624 165.123 279.185 164.024 279.185C163.655 279.185 163.295 279.237 162.943 279.343C162.592 279.448 162.311 279.571 162.091 279.712C161.862 279.853 161.66 280.011 161.467 280.187C161.273 280.362 161.15 280.485 161.089 280.556C161.027 280.626 160.983 280.688 160.966 280.723V275.396ZM177.34 283.685C177.34 284.616 177.023 285.407 176.408 286.049C175.793 286.69 175.046 287.007 174.185 287.007C173.323 287.007 172.576 286.69 171.961 286.04C171.346 285.39 171.038 284.607 171.038 283.676C171.038 282.744 171.346 281.962 171.961 281.32C172.576 280.679 173.323 280.354 174.185 280.354C175.046 280.354 175.793 280.679 176.408 281.32C177.023 281.962 177.34 282.753 177.34 283.685ZM169.781 283.685C169.781 284.95 170.203 286.014 171.064 286.884C171.926 287.745 172.963 288.185 174.193 288.185C175.415 288.185 176.452 287.745 177.305 286.884C178.166 286.014 178.588 284.95 178.588 283.685C178.588 282.419 178.166 281.355 177.305 280.485C176.452 279.615 175.415 279.176 174.193 279.176C172.963 279.176 171.926 279.615 171.064 280.485C170.203 281.355 169.781 282.419 169.781 283.685ZM182.112 279.36H180.855V288H182.112V283.228C182.112 282.393 182.367 281.707 182.886 281.171C183.396 280.626 184.037 280.362 184.811 280.362C185.496 280.362 186.05 280.591 186.489 281.048C186.929 281.505 187.148 282.12 187.148 282.876V288.009H188.414V282.876C188.414 281.76 188.089 280.863 187.438 280.187C186.788 279.519 185.936 279.176 184.898 279.176C184.547 279.176 184.213 279.229 183.888 279.334C183.562 279.439 183.299 279.554 183.105 279.677C182.912 279.8 182.728 279.949 182.552 280.116C182.376 280.292 182.262 280.406 182.218 280.468C182.165 280.538 182.13 280.582 182.112 280.617V279.36ZM198.223 283.685C198.223 284.616 197.906 285.407 197.291 286.049C196.676 286.69 195.929 287.007 195.067 287.007C194.206 287.007 193.459 286.69 192.844 286.04C192.229 285.39 191.921 284.607 191.921 283.676C191.921 282.744 192.229 281.962 192.844 281.32C193.459 280.679 194.206 280.354 195.067 280.354C195.929 280.354 196.676 280.679 197.291 281.32C197.906 281.962 198.223 282.753 198.223 283.685ZM190.664 283.685C190.664 284.95 191.086 286.014 191.947 286.884C192.809 287.745 193.846 288.185 195.076 288.185C196.298 288.185 197.335 287.745 198.188 286.884C199.049 286.014 199.471 284.95 199.471 283.685C199.471 282.419 199.049 281.355 198.188 280.485C197.335 279.615 196.298 279.176 195.076 279.176C193.846 279.176 192.809 279.615 191.947 280.485C191.086 281.355 190.664 282.419 190.664 283.685ZM207.943 283.676L205.878 280.714H204.524L206.599 283.676L204.524 286.646H205.878L207.943 283.676ZM204.612 283.676L202.547 280.714H201.193L203.268 283.676L201.193 286.646H202.547L204.612 283.676ZM213.533 288H224.783V290.162H226.04V286.831H224.687V279.36H223.43V286.831H219.756V279.36H218.481V286.831H214.79V279.36H213.533V288ZM234.943 283.685C234.943 284.616 234.627 285.407 234.012 286.049C233.396 286.69 232.649 287.007 231.788 287.007C230.927 287.007 230.18 286.69 229.564 286.04C228.949 285.39 228.642 284.607 228.642 283.676C228.642 282.744 228.949 281.962 229.564 281.32C230.18 280.679 230.927 280.354 231.788 280.354C232.649 280.354 233.396 280.679 234.012 281.32C234.627 281.962 234.943 282.753 234.943 283.685ZM227.385 283.685C227.385 284.95 227.807 286.014 228.668 286.884C229.529 287.745 230.566 288.185 231.797 288.185C233.019 288.185 234.056 287.745 234.908 286.884C235.77 286.014 236.191 284.95 236.191 283.685C236.191 282.419 235.77 281.355 234.908 280.485C234.056 279.615 233.019 279.176 231.797 279.176C230.566 279.176 229.529 279.615 228.668 280.485C227.807 281.355 227.385 282.419 227.385 283.685ZM239.716 283.685C239.716 282.797 240.023 282.023 240.656 281.355C241.289 280.688 241.992 280.354 242.774 280.354C243.513 280.354 244.181 280.679 244.77 281.329C245.358 281.979 245.657 282.762 245.657 283.685C245.657 284.607 245.358 285.39 244.77 286.04C244.181 286.69 243.513 287.007 242.774 287.007C241.992 287.007 241.289 286.682 240.656 286.014C240.023 285.346 239.716 284.572 239.716 283.685ZM239.716 286.646L239.839 286.813C239.927 286.919 240.05 287.051 240.226 287.2C240.401 287.35 240.604 287.499 240.841 287.64C241.069 287.789 241.359 287.912 241.702 288.018C242.045 288.123 242.405 288.176 242.774 288.176C243.882 288.176 244.849 287.736 245.675 286.857C246.501 285.979 246.914 284.915 246.914 283.685C246.914 282.454 246.492 281.391 245.666 280.512C244.84 279.624 243.873 279.185 242.774 279.185C242.405 279.185 242.045 279.237 241.693 279.343C241.342 279.448 241.061 279.571 240.841 279.712C240.612 279.853 240.41 280.011 240.217 280.187C240.023 280.362 239.9 280.485 239.839 280.556C239.777 280.626 239.733 280.688 239.716 280.723V279.369H238.459V291.788H239.716V286.646ZM249.164 288H250.421V279.36H249.164V288ZM248.979 276.478C248.979 276.706 249.05 276.899 249.208 277.058C249.366 277.216 249.56 277.286 249.788 277.286C250.017 277.286 250.201 277.216 250.359 277.058C250.518 276.899 250.597 276.706 250.597 276.478C250.597 276.249 250.518 276.064 250.359 275.906C250.201 275.748 250.017 275.669 249.788 275.669C249.56 275.669 249.366 275.748 249.208 275.906C249.05 276.064 248.979 276.249 248.979 276.478ZM258.885 288H260.15V279.36H258.885V283.228L258.621 283.43C258.445 283.57 258.164 283.711 257.777 283.843C257.391 283.975 256.978 284.036 256.547 284.036C255.914 284.036 255.396 283.834 254.991 283.43C254.587 283.025 254.385 282.507 254.385 281.883V279.36H253.128V281.883C253.128 282.867 253.436 283.676 254.051 284.291C254.666 284.906 255.475 285.214 256.459 285.214C257.408 285.214 258.217 284.977 258.885 284.493V288ZM269.238 288H270.504V279.36H269.238V283.052H264.29V279.36H263.033V288H264.29V284.221H269.238V288ZM280.312 283.685C280.312 284.616 279.996 285.407 279.381 286.049C278.766 286.69 278.019 287.007 277.157 287.007C276.296 287.007 275.549 286.69 274.934 286.04C274.318 285.39 274.011 284.607 274.011 283.676C274.011 282.744 274.318 281.962 274.934 281.32C275.549 280.679 276.296 280.354 277.157 280.354C278.019 280.354 278.766 280.679 279.381 281.32C279.996 281.962 280.312 282.753 280.312 283.685ZM272.754 283.685C272.754 284.95 273.176 286.014 274.037 286.884C274.898 287.745 275.936 288.185 277.166 288.185C278.388 288.185 279.425 287.745 280.277 286.884C281.139 286.014 281.561 284.95 281.561 283.685C281.561 282.419 281.139 281.355 280.277 280.485C279.425 279.615 278.388 279.176 277.166 279.176C275.936 279.176 274.898 279.615 274.037 280.485C273.176 281.355 272.754 282.419 272.754 283.685Z" fill="#323264"/>
<path d="M53.5566 236.266C51.8691 236.266 50.5508 236.564 49.6016 237.162L49.9707 232.486H60.3945V227.793H45.1016L44.2051 242.207L47.9844 242.559L48.3711 242.049C48.6348 241.732 49.1094 241.398 49.7949 241.064C50.4629 240.748 51.2363 240.572 52.1152 240.572C53.3633 240.572 54.4004 240.977 55.209 241.768C56.0176 242.576 56.4219 243.561 56.4219 244.721C56.4219 245.898 56.0527 246.848 55.2793 247.586C54.5059 248.324 53.4512 248.676 52.0977 248.676C51.043 248.676 50.0234 248.447 49.0039 247.973C48.002 247.516 47.3516 247.146 47.0527 246.865C46.7539 246.584 46.5254 246.355 46.3496 246.162L43.0977 249.572L43.4668 249.977C43.6777 250.275 44.0469 250.609 44.5566 250.996C45.084 251.383 45.6816 251.752 46.3672 252.139C47.0527 252.525 47.9492 252.859 49.0391 253.141C50.1289 253.422 51.2715 253.545 52.4668 253.545C55.3145 253.545 57.6172 252.719 59.375 251.049C61.1328 249.379 62.0117 247.27 62.0117 244.721C62.0117 242.295 61.2207 240.291 59.6035 238.674C57.9863 237.074 55.9824 236.266 53.5566 236.266ZM71.0293 240.396C71.0293 237.76 71.5566 235.721 72.6289 234.279C73.6836 232.838 74.9492 232.117 76.4258 232.117C77.8848 232.117 79.1504 232.838 80.2227 234.279C81.2773 235.721 81.8223 237.76 81.8223 240.396C81.8223 243.033 81.2773 245.072 80.2227 246.514C79.1504 247.955 77.8848 248.676 76.4258 248.676C74.9492 248.676 73.6836 247.955 72.6289 246.514C71.5566 245.072 71.0293 243.033 71.0293 240.396ZM87.2188 240.396C87.2188 236.459 86.1641 233.295 84.0723 230.887C81.9629 228.479 79.4141 227.266 76.4258 227.266C73.4199 227.266 70.8711 228.479 68.7793 230.887C66.6699 233.295 65.6328 236.459 65.6328 240.396C65.6328 244.334 66.6699 247.516 68.7793 249.924C70.8711 252.35 73.4199 253.545 76.4258 253.545C79.4141 253.545 81.9629 252.35 84.0723 249.924C86.1641 247.516 87.2188 244.334 87.2188 240.396ZM96.5879 240.396C96.5879 237.76 97.1152 235.721 98.1875 234.279C99.2422 232.838 100.508 232.117 101.984 232.117C103.443 232.117 104.709 232.838 105.781 234.279C106.836 235.721 107.381 237.76 107.381 240.396C107.381 243.033 106.836 245.072 105.781 246.514C104.709 247.955 103.443 248.676 101.984 248.676C100.508 248.676 99.2422 247.955 98.1875 246.514C97.1152 245.072 96.5879 243.033 96.5879 240.396ZM112.777 240.396C112.777 236.459 111.723 233.295 109.631 230.887C107.521 228.479 104.973 227.266 101.984 227.266C98.9785 227.266 96.4297 228.479 94.3379 230.887C92.2285 233.295 91.1914 236.459 91.1914 240.396C91.1914 244.334 92.2285 247.516 94.3379 249.924C96.4297 252.35 98.9785 253.545 101.984 253.545C104.973 253.545 107.521 252.35 109.631 249.924C111.723 247.516 112.777 244.334 112.777 240.396ZM126.277 250.838V244.721H132.412V240.221H126.277V234.104H122.146V240.221H116.029V244.721H122.146V250.838H126.277Z" fill="url(#paint0_linear)"/>
<path d="M18.0971 227.553C11.2526 227.553 5.68408 233.121 5.68408 239.966C5.68408 246.811 11.2526 252.38 18.0971 252.38C24.9416 252.38 30.5101 246.811 30.5101 239.966C30.5106 233.121 24.9421 227.553 18.0971 227.553ZM24.9556 239.058V239.059L21.3621 241.659L22.7461 245.889C22.7681 245.955 22.7796 246.025 22.7796 246.097C22.7796 246.467 22.4806 246.767 22.1111 246.767C21.9641 246.767 21.8291 246.72 21.7191 246.64L18.0976 244.021L14.4761 246.64C14.3661 246.72 14.2311 246.767 14.0846 246.767C13.7146 246.767 13.4151 246.467 13.4151 246.097C13.4151 246.025 13.4271 245.955 13.4491 245.889L14.8336 241.659L11.2401 239.059V239.058C11.0721 238.937 10.9631 238.74 10.9631 238.517C10.9631 238.147 11.2621 237.848 11.6321 237.848H16.0806L17.4581 233.638C17.5421 233.364 17.7966 233.165 18.0981 233.165C18.3991 233.165 18.6541 233.364 18.7376 233.638L20.1151 237.848H24.5636C24.9331 237.848 25.2326 238.147 25.2326 238.517C25.2321 238.74 25.1231 238.937 24.9556 239.058Z" fill="#F0145A"/>
<path d="M6.24316 169.052C5.42578 169.192 4.80176 169.482 4.37109 169.922C3.93164 170.361 3.7207 170.941 3.7207 171.662C3.7207 172.321 4.01074 172.901 4.59961 173.411C5.18848 173.921 5.91797 174.176 6.7793 174.176C7.12207 174.176 7.45605 174.132 7.78125 174.035C8.10645 173.947 8.37012 173.842 8.57227 173.719C8.76562 173.596 8.9502 173.464 9.12598 173.306C9.30176 173.147 9.40723 173.042 9.45996 172.98C9.5127 172.919 9.54785 172.866 9.57422 172.831V174H10.8311V168.507C10.8311 167.566 10.5059 166.775 9.85547 166.134C9.20508 165.501 8.39648 165.176 7.41211 165.176C7.02539 165.176 6.63867 165.237 6.26953 165.352C5.90039 165.466 5.60156 165.598 5.37305 165.738C5.14453 165.888 4.9248 166.055 4.71387 166.239C4.50293 166.424 4.37109 166.556 4.30957 166.626C4.24805 166.696 4.2041 166.758 4.16895 166.802L4.97754 167.61L5.25 167.303C5.42578 167.092 5.71582 166.881 6.12012 166.67C6.52441 166.459 6.95508 166.354 7.41211 166.354C8.04492 166.354 8.56348 166.556 8.96777 166.951C9.37207 167.355 9.57422 167.874 9.57422 168.507L6.24316 169.052ZM6.7793 173.007C6.2168 173.007 5.76855 172.884 5.45215 172.629C5.13574 172.374 4.97754 172.049 4.97754 171.662C4.97754 170.854 5.52246 170.344 6.60352 170.133L9.57422 169.588V170.133C9.57422 170.985 9.31055 171.68 8.7832 172.207C8.25586 172.743 7.58789 173.007 6.7793 173.007ZM14.9619 171.574L16.6758 169.772L19.7344 174H21.1758L17.4844 168.867L20.8154 165.36H19.2773L14.9619 169.948V165.36H13.7051V174H14.9619V171.574ZM21.7119 166.529H24.7705V174H26.0273V166.529H29.0859V165.36H21.7119V166.529ZM37.374 165.36L32.1533 171.838V165.36H30.8965V174H31.9688L37.1895 167.522V174H38.4551V165.36H37.374ZM41.3379 165.36V174H45.4775C46.3564 174 47.042 173.78 47.5342 173.323C48.0176 172.875 48.2637 172.26 48.2637 171.478C48.2637 171.161 48.2109 170.871 48.1055 170.607C48 170.353 47.8857 170.159 47.7627 170.019C47.6396 169.878 47.4902 169.764 47.3232 169.658C47.1562 169.553 47.042 169.491 46.9717 169.465C46.9014 169.447 46.8574 169.43 46.8223 169.412L47.0947 169.245C47.2705 169.131 47.4551 168.92 47.6309 168.621C47.8066 168.322 47.9033 167.979 47.9033 167.61C47.9033 166.96 47.666 166.424 47.1914 166.002C46.7168 165.58 46.084 165.36 45.293 165.36H41.3379ZM45.4775 169.948C45.9697 169.948 46.3477 170.08 46.6113 170.326C46.875 170.581 47.0068 170.933 47.0068 171.39C47.0068 171.847 46.875 172.207 46.6113 172.453C46.3477 172.708 45.9697 172.831 45.4775 172.831H42.5947V169.948H45.4775ZM46.6465 167.698C46.6465 168.48 46.1895 168.867 45.293 168.867H42.5947V166.529H45.293C46.1895 166.529 46.6465 166.925 46.6465 167.698ZM56.8945 174H58.1602V165.36H56.8945V169.052H51.9463V165.36H50.6895V174H51.9463V170.221H56.8945V174ZM67.5205 165.36L62.2998 171.838V165.36H61.043V174H62.1152L67.3359 167.522V174H68.6016V165.36H67.5205ZM74.3584 170.493L76.8809 174H78.4102L75.167 169.5L78.1377 165.36H76.6084L74.3584 168.507L72.1084 165.36H70.5791L73.5498 169.5L70.3066 174H71.8447L74.3584 170.493ZM84.8174 171.574L86.5312 169.772L89.5898 174H91.0312L87.3398 168.867L90.6709 165.36H89.1328L84.8174 169.948V165.36H83.5605V174H84.8174V171.574ZM93.5449 165.36V167.883C93.5449 169.298 93.4658 170.388 93.3252 171.152C93.1846 171.908 93.0088 172.4 92.7979 172.611C92.5869 172.822 92.2969 172.928 91.9277 172.928C91.6816 172.928 91.4443 172.866 91.207 172.752V174.009L91.3301 174.044C91.4004 174.079 91.5059 174.105 91.6553 174.141C91.8047 174.167 91.9541 174.185 92.1035 174.185C92.5342 174.185 92.9033 174.097 93.2109 173.921C93.5098 173.745 93.791 173.438 94.0459 172.998C94.292 172.559 94.4854 171.908 94.6084 171.064C94.7314 170.221 94.8018 169.157 94.8018 167.892V166.538H98.5811V174.009H99.8467V165.369L93.5449 165.36ZM102.721 174H103.978V165.36H102.721V174ZM102.536 162.478C102.536 162.706 102.606 162.899 102.765 163.058C102.923 163.216 103.116 163.286 103.345 163.286C103.573 163.286 103.758 163.216 103.916 163.058C104.074 162.899 104.153 162.706 104.153 162.478C104.153 162.249 104.074 162.064 103.916 161.906C103.758 161.748 103.573 161.669 103.345 161.669C103.116 161.669 102.923 161.748 102.765 161.906C102.606 162.064 102.536 162.249 102.536 162.478ZM106.236 169.676C106.236 170.924 106.658 171.987 107.511 172.866C108.354 173.745 109.374 174.176 110.552 174.176C110.974 174.176 111.387 174.114 111.791 173.982C112.195 173.851 112.529 173.71 112.784 173.552C113.048 173.394 113.294 173.218 113.522 173.016C113.76 172.813 113.918 172.673 113.988 172.585C114.059 172.497 114.111 172.436 114.146 172.383L113.25 171.574L112.96 171.926C112.758 172.172 112.433 172.409 111.984 172.646C111.527 172.893 111.053 173.007 110.552 173.007C109.796 173.007 109.119 172.726 108.521 172.154C107.924 171.592 107.581 170.915 107.493 170.133H111.817V168.964H107.59C107.678 168.27 108.012 167.663 108.583 167.136C109.146 166.617 109.805 166.354 110.552 166.354C110.877 166.354 111.193 166.406 111.492 166.503C111.791 166.608 112.028 166.723 112.222 166.846C112.406 166.969 112.582 167.118 112.74 167.285C112.898 167.461 113.004 167.575 113.057 167.637C113.101 167.707 113.136 167.751 113.162 167.786L114.067 166.89L113.689 166.477C113.435 166.195 113.013 165.905 112.433 165.615C111.853 165.325 111.22 165.176 110.552 165.176C109.374 165.176 108.363 165.615 107.511 166.494C106.658 167.373 106.236 168.428 106.236 169.676ZM122.338 174H123.604V165.36H122.338V169.052H117.39V165.36H116.133V174H117.39V170.221H122.338V174ZM125.405 166.529H128.464V174H129.721V166.529H132.779V165.36H125.405V166.529ZM134.59 174H135.847V165.36H134.59V174ZM134.405 162.478C134.405 162.706 134.476 162.899 134.634 163.058C134.792 163.216 134.985 163.286 135.214 163.286C135.442 163.286 135.627 163.216 135.785 163.058C135.943 162.899 136.022 162.706 136.022 162.478C136.022 162.249 135.943 162.064 135.785 161.906C135.627 161.748 135.442 161.669 135.214 161.669C134.985 161.669 134.792 161.748 134.634 161.906C134.476 162.064 134.405 162.249 134.405 162.478ZM138.738 165.36V174H142.878C143.757 174 144.442 173.78 144.935 173.323C145.418 172.875 145.664 172.26 145.664 171.478C145.664 171.161 145.611 170.871 145.506 170.607C145.4 170.353 145.286 170.159 145.163 170.019C145.04 169.878 144.891 169.764 144.724 169.658C144.557 169.553 144.442 169.491 144.372 169.465C144.302 169.447 144.258 169.43 144.223 169.412L144.495 169.245C144.671 169.131 144.855 168.92 145.031 168.621C145.207 168.322 145.304 167.979 145.304 167.61C145.304 166.96 145.066 166.424 144.592 166.002C144.117 165.58 143.484 165.36 142.693 165.36H138.738ZM142.878 169.948C143.37 169.948 143.748 170.08 144.012 170.326C144.275 170.581 144.407 170.933 144.407 171.39C144.407 171.847 144.275 172.207 144.012 172.453C143.748 172.708 143.37 172.831 142.878 172.831H139.995V169.948H142.878ZM144.047 167.698C144.047 168.48 143.59 168.867 142.693 168.867H139.995V166.529H142.693C143.59 166.529 144.047 166.925 144.047 167.698ZM148.354 172.383L146.736 175.89L147.545 176.338L149.619 173.104L148.354 172.383ZM154.84 168.243C154.84 168.656 154.901 169.025 155.033 169.351C155.165 169.667 155.306 169.922 155.464 170.098C155.622 170.273 155.798 170.432 156.009 170.555C156.211 170.678 156.352 170.757 156.439 170.792C156.527 170.827 156.589 170.845 156.642 170.854L154.664 174H156.105L157.898 171.117H160.421V174H161.678V165.36H157.995C157.055 165.36 156.29 165.642 155.71 166.187C155.13 166.731 154.84 167.417 154.84 168.243ZM160.421 166.529V169.948H157.995C157.415 169.948 156.949 169.79 156.615 169.474C156.272 169.157 156.105 168.753 156.105 168.243C156.105 167.742 156.272 167.329 156.615 167.013C156.958 166.696 157.415 166.538 157.995 166.538L160.421 166.529ZM165.817 171.574L167.531 169.772L170.59 174H172.031L168.34 168.867L171.671 165.36H170.133L165.817 169.948V165.36H164.561V174H165.817V171.574ZM173.648 174H174.905V165.36H173.648V174ZM173.464 162.478C173.464 162.706 173.534 162.899 173.692 163.058C173.851 163.216 174.044 163.286 174.272 163.286C174.501 163.286 174.686 163.216 174.844 163.058C175.002 162.899 175.081 162.706 175.081 162.478C175.081 162.249 175.002 162.064 174.844 161.906C174.686 161.748 174.501 161.669 174.272 161.669C174.044 161.669 173.851 161.748 173.692 161.906C173.534 162.064 173.464 162.249 173.464 162.478ZM189.231 172.831H187.878V165.36H181.945V167.883C181.945 168.516 181.884 169.131 181.778 169.711C181.673 170.291 181.55 170.757 181.409 171.108C181.269 171.46 181.119 171.776 180.943 172.075C180.768 172.374 180.636 172.567 180.565 172.655C180.495 172.743 180.442 172.796 180.407 172.831H179.783V176.162H181.04V174H187.975V176.162H189.231V172.831ZM183.202 166.529H186.621V172.831H181.761L182.121 172.33C182.358 171.996 182.596 171.416 182.833 170.59C183.079 169.772 183.193 168.867 183.193 167.883L183.202 166.529ZM198.135 169.685C198.135 170.616 197.818 171.407 197.203 172.049C196.588 172.69 195.841 173.007 194.979 173.007C194.118 173.007 193.371 172.69 192.756 172.04C192.141 171.39 191.833 170.607 191.833 169.676C191.833 168.744 192.141 167.962 192.756 167.32C193.371 166.679 194.118 166.354 194.979 166.354C195.841 166.354 196.588 166.679 197.203 167.32C197.818 167.962 198.135 168.753 198.135 169.685ZM190.576 169.685C190.576 170.95 190.998 172.014 191.859 172.884C192.721 173.745 193.758 174.185 194.988 174.185C196.21 174.185 197.247 173.745 198.1 172.884C198.961 172.014 199.383 170.95 199.383 169.685C199.383 168.419 198.961 167.355 198.1 166.485C197.247 165.615 196.21 165.176 194.988 165.176C193.758 165.176 192.721 165.615 191.859 166.485C190.998 167.355 190.576 168.419 190.576 169.685ZM201.65 165.36V174H205.79C206.669 174 207.354 173.78 207.847 173.323C208.33 172.875 208.576 172.26 208.576 171.478C208.576 171.161 208.523 170.871 208.418 170.607C208.312 170.353 208.198 170.159 208.075 170.019C207.952 169.878 207.803 169.764 207.636 169.658C207.469 169.553 207.354 169.491 207.284 169.465C207.214 169.447 207.17 169.43 207.135 169.412L207.407 169.245C207.583 169.131 207.768 168.92 207.943 168.621C208.119 168.322 208.216 167.979 208.216 167.61C208.216 166.96 207.979 166.424 207.504 166.002C207.029 165.58 206.396 165.36 205.605 165.36H201.65ZM205.79 169.948C206.282 169.948 206.66 170.08 206.924 170.326C207.188 170.581 207.319 170.933 207.319 171.39C207.319 171.847 207.188 172.207 206.924 172.453C206.66 172.708 206.282 172.831 205.79 172.831H202.907V169.948H205.79ZM206.959 167.698C206.959 168.48 206.502 168.867 205.605 168.867H202.907V166.529H205.605C206.502 166.529 206.959 166.925 206.959 167.698ZM211.002 174H212.259V165.36H211.002V174ZM210.817 162.478C210.817 162.706 210.888 162.899 211.046 163.058C211.204 163.216 211.397 163.286 211.626 163.286C211.854 163.286 212.039 163.216 212.197 163.058C212.355 162.899 212.435 162.706 212.435 162.478C212.435 162.249 212.355 162.064 212.197 161.906C212.039 161.748 211.854 161.669 211.626 161.669C211.397 161.669 211.204 161.748 211.046 161.906C210.888 162.064 210.817 162.249 210.817 162.478ZM216.407 169.685C216.407 168.797 216.715 168.023 217.348 167.355C217.98 166.688 218.684 166.354 219.466 166.354C220.204 166.354 220.872 166.679 221.461 167.329C222.05 167.979 222.349 168.762 222.349 169.685C222.349 170.607 222.05 171.39 221.461 172.04C220.872 172.69 220.204 173.007 219.466 173.007C218.684 173.007 217.98 172.682 217.348 172.014C216.715 171.346 216.407 170.572 216.407 169.685ZM216.407 172.646L216.53 172.813C216.618 172.919 216.741 173.051 216.917 173.2C217.093 173.35 217.295 173.499 217.532 173.64C217.761 173.789 218.051 173.912 218.394 174.018C218.736 174.123 219.097 174.176 219.466 174.176C220.573 174.176 221.54 173.736 222.366 172.857C223.192 171.979 223.605 170.915 223.605 169.685C223.605 168.454 223.184 167.391 222.357 166.512C221.531 165.624 220.564 165.185 219.466 165.185C219.097 165.185 218.736 165.237 218.385 165.343C218.033 165.448 217.752 165.571 217.532 165.712C217.304 165.853 217.102 166.011 216.908 166.187C216.715 166.362 216.592 166.485 216.53 166.556C216.469 166.626 216.425 166.688 216.407 166.723V165.369H215.15V177.788H216.407V172.646ZM225.311 168.243C225.311 168.656 225.372 169.025 225.504 169.351C225.636 169.667 225.776 169.922 225.935 170.098C226.093 170.273 226.269 170.432 226.479 170.555C226.682 170.678 226.822 170.757 226.91 170.792C226.998 170.827 227.06 170.845 227.112 170.854L225.135 174H226.576L228.369 171.117H230.892V174H232.148V165.36H228.466C227.525 165.36 226.761 165.642 226.181 166.187C225.601 166.731 225.311 167.417 225.311 168.243ZM230.892 166.529V169.948H228.466C227.886 169.948 227.42 169.79 227.086 169.474C226.743 169.157 226.576 168.753 226.576 168.243C226.576 167.742 226.743 167.329 227.086 167.013C227.429 166.696 227.886 166.538 228.466 166.538L230.892 166.529ZM246.817 169.676C246.817 168.428 246.387 167.373 245.543 166.494C244.69 165.615 243.68 165.176 242.502 165.176C241.395 165.176 240.428 165.562 239.619 166.327C238.802 167.092 238.318 167.997 238.169 169.052H236.279V165.36H235.022V174H236.279V170.221H238.169C238.31 171.328 238.784 172.26 239.61 173.024C240.437 173.798 241.395 174.176 242.493 174.176C243.671 174.176 244.682 173.745 245.534 172.866C246.387 171.987 246.817 170.924 246.817 169.676ZM239.426 169.685C239.426 168.753 239.733 167.962 240.34 167.32C240.946 166.679 241.667 166.354 242.493 166.354C243.319 166.354 244.04 166.679 244.646 167.32C245.253 167.962 245.552 168.753 245.552 169.685C245.552 170.616 245.253 171.407 244.646 172.049C244.04 172.69 243.319 173.007 242.493 173.007C241.667 173.007 240.946 172.69 240.34 172.049C239.733 171.407 239.426 170.616 239.426 169.685ZM247.995 166.529H251.054V174H252.311V166.529H255.369V165.36H247.995V166.529ZM258.437 172.831V169.412H260.687C261.258 169.412 261.715 169.57 262.058 169.887C262.4 170.203 262.576 170.616 262.576 171.117C262.576 171.627 262.4 172.04 262.058 172.356C261.715 172.673 261.267 172.831 260.704 172.831H258.437ZM263.833 171.126C263.833 170.265 263.552 169.562 262.989 169.034C262.427 168.507 261.653 168.243 260.687 168.243H258.437V165.36H257.18V174H260.704C261.671 174 262.436 173.736 262.998 173.209C263.552 172.682 263.833 171.987 263.833 171.126ZM275.725 174H276.99V165.36H275.725V169.052H270.776V165.36H269.52V174H270.776V170.221H275.725V174ZM281.763 169.052C280.945 169.192 280.321 169.482 279.891 169.922C279.451 170.361 279.24 170.941 279.24 171.662C279.24 172.321 279.53 172.901 280.119 173.411C280.708 173.921 281.438 174.176 282.299 174.176C282.642 174.176 282.976 174.132 283.301 174.035C283.626 173.947 283.89 173.842 284.092 173.719C284.285 173.596 284.47 173.464 284.646 173.306C284.821 173.147 284.927 173.042 284.979 172.98C285.032 172.919 285.067 172.866 285.094 172.831V174H286.351V168.507C286.351 167.566 286.025 166.775 285.375 166.134C284.725 165.501 283.916 165.176 282.932 165.176C282.545 165.176 282.158 165.237 281.789 165.352C281.42 165.466 281.121 165.598 280.893 165.738C280.664 165.888 280.444 166.055 280.233 166.239C280.022 166.424 279.891 166.556 279.829 166.626C279.768 166.696 279.724 166.758 279.688 166.802L280.497 167.61L280.77 167.303C280.945 167.092 281.235 166.881 281.64 166.67C282.044 166.459 282.475 166.354 282.932 166.354C283.564 166.354 284.083 166.556 284.487 166.951C284.892 167.355 285.094 167.874 285.094 168.507L281.763 169.052ZM282.299 173.007C281.736 173.007 281.288 172.884 280.972 172.629C280.655 172.374 280.497 172.049 280.497 171.662C280.497 170.854 281.042 170.344 282.123 170.133L285.094 169.588V170.133C285.094 170.985 284.83 171.68 284.303 172.207C283.775 172.743 283.107 173.007 282.299 173.007ZM296.783 167.61V174H298.04V165.36H297.047L293.628 169.676L290.209 165.36H289.225V174H290.481V167.61L293.628 171.574L296.783 167.61ZM303.727 169.676C303.727 170.924 304.148 171.987 305.001 172.866C305.845 173.745 306.864 174.176 308.042 174.176C308.464 174.176 308.877 174.114 309.281 173.982C309.686 173.851 310.02 173.71 310.274 173.552C310.538 173.394 310.784 173.218 311.013 173.016C311.25 172.813 311.408 172.673 311.479 172.585C311.549 172.497 311.602 172.436 311.637 172.383L310.74 171.574L310.45 171.926C310.248 172.172 309.923 172.409 309.475 172.646C309.018 172.893 308.543 173.007 308.042 173.007C307.216 173.007 306.495 172.69 305.889 172.049C305.282 171.407 304.983 170.616 304.983 169.685C304.983 168.753 305.282 167.962 305.889 167.32C306.495 166.679 307.216 166.354 308.042 166.354C308.367 166.354 308.684 166.406 308.982 166.503C309.281 166.608 309.519 166.723 309.712 166.846C309.896 166.969 310.072 167.118 310.23 167.285C310.389 167.461 310.494 167.575 310.538 167.637C310.591 167.707 310.626 167.751 310.644 167.786L311.549 166.89L311.171 166.477C310.925 166.195 310.503 165.905 309.923 165.615C309.343 165.325 308.71 165.176 308.033 165.176C306.864 165.176 305.854 165.615 305.001 166.494C304.148 167.373 303.727 168.428 303.727 169.676ZM313.623 165.36V174H317.763C318.642 174 319.327 173.78 319.819 173.323C320.303 172.875 320.549 172.26 320.549 171.478C320.549 171.161 320.496 170.871 320.391 170.607C320.285 170.353 320.171 170.159 320.048 170.019C319.925 169.878 319.775 169.764 319.608 169.658C319.441 169.553 319.327 169.491 319.257 169.465C319.187 169.447 319.143 169.43 319.107 169.412L319.38 169.245C319.556 169.131 319.74 168.92 319.916 168.621C320.092 168.322 320.188 167.979 320.188 167.61C320.188 166.96 319.951 166.424 319.477 166.002C319.002 165.58 318.369 165.36 317.578 165.36H313.623ZM317.763 169.948C318.255 169.948 318.633 170.08 318.896 170.326C319.16 170.581 319.292 170.933 319.292 171.39C319.292 171.847 319.16 172.207 318.896 172.453C318.633 172.708 318.255 172.831 317.763 172.831H314.88V169.948H317.763ZM318.932 167.698C318.932 168.48 318.475 168.867 317.578 168.867H314.88V166.529H317.578C318.475 166.529 318.932 166.925 318.932 167.698ZM329.9 169.685C329.9 170.616 329.584 171.407 328.969 172.049C328.354 172.69 327.606 173.007 326.745 173.007C325.884 173.007 325.137 172.69 324.521 172.04C323.906 171.39 323.599 170.607 323.599 169.676C323.599 168.744 323.906 167.962 324.521 167.32C325.137 166.679 325.884 166.354 326.745 166.354C327.606 166.354 328.354 166.679 328.969 167.32C329.584 167.962 329.9 168.753 329.9 169.685ZM322.342 169.685C322.342 170.95 322.764 172.014 323.625 172.884C324.486 173.745 325.523 174.185 326.754 174.185C327.976 174.185 329.013 173.745 329.865 172.884C330.727 172.014 331.148 170.95 331.148 169.685C331.148 168.419 330.727 167.355 329.865 166.485C329.013 165.615 327.976 165.176 326.754 165.176C325.523 165.176 324.486 165.615 323.625 166.485C322.764 167.355 322.342 168.419 322.342 169.685ZM331.526 162.627C331.526 162.855 331.597 163.049 331.755 163.207C331.913 163.365 332.106 163.436 332.335 163.436C332.563 163.436 332.748 163.365 332.906 163.207C333.064 163.049 333.144 162.855 333.144 162.627C333.144 162.398 333.064 162.214 332.906 162.056C332.748 161.897 332.563 161.818 332.335 161.818C332.106 161.818 331.913 161.897 331.755 162.056C331.597 162.214 331.526 162.398 331.526 162.627ZM334.945 162.627C334.945 162.855 335.016 163.049 335.174 163.207C335.332 163.365 335.525 163.436 335.754 163.436C335.982 163.436 336.167 163.365 336.325 163.207C336.483 163.049 336.562 162.855 336.562 162.627C336.562 162.398 336.483 162.214 336.325 162.056C336.167 161.897 335.982 161.818 335.754 161.818C335.525 161.818 335.332 161.897 335.174 162.056C335.016 162.214 334.945 162.398 334.945 162.627ZM333.416 174H334.673V165.36H333.416V174ZM12.3604 193.831H11.0068V186.36H5.07422V188.883C5.07422 189.516 5.0127 190.131 4.90723 190.711C4.80176 191.291 4.67871 191.757 4.53809 192.108C4.39746 192.46 4.24805 192.776 4.07227 193.075C3.89648 193.374 3.76465 193.567 3.69434 193.655C3.62402 193.743 3.57129 193.796 3.53613 193.831H2.91211V197.162H4.16895V195H11.1035V197.162H12.3604V193.831ZM6.33105 187.529H9.75V193.831H4.88965L5.25 193.33C5.4873 192.996 5.72461 192.416 5.96191 191.59C6.20801 190.772 6.32227 189.867 6.32227 188.883L6.33105 187.529ZM21.2637 190.685C21.2637 191.616 20.9473 192.407 20.332 193.049C19.7168 193.69 18.9697 194.007 18.1084 194.007C17.2471 194.007 16.5 193.69 15.8848 193.04C15.2695 192.39 14.9619 191.607 14.9619 190.676C14.9619 189.744 15.2695 188.962 15.8848 188.32C16.5 187.679 17.2471 187.354 18.1084 187.354C18.9697 187.354 19.7168 187.679 20.332 188.32C20.9473 188.962 21.2637 189.753 21.2637 190.685ZM13.7051 190.685C13.7051 191.95 14.127 193.014 14.9883 193.884C15.8496 194.745 16.8867 195.185 18.1172 195.185C19.3389 195.185 20.376 194.745 21.2285 193.884C22.0898 193.014 22.5117 191.95 22.5117 190.685C22.5117 189.419 22.0898 188.355 21.2285 187.485C20.376 186.615 19.3389 186.176 18.1172 186.176C16.8867 186.176 15.8496 186.615 14.9883 187.485C14.127 188.355 13.7051 189.419 13.7051 190.685ZM26.0361 190.685C26.0361 189.797 26.3438 189.023 26.9766 188.355C27.6094 187.688 28.3125 187.354 29.0947 187.354C29.833 187.354 30.501 187.679 31.0898 188.329C31.6787 188.979 31.9775 189.762 31.9775 190.685C31.9775 191.607 31.6787 192.39 31.0898 193.04C30.501 193.69 29.833 194.007 29.0947 194.007C28.3125 194.007 27.6094 193.682 26.9766 193.014C26.3438 192.346 26.0361 191.572 26.0361 190.685ZM26.0361 193.646L26.1592 193.813C26.2471 193.919 26.3701 194.051 26.5459 194.2C26.7217 194.35 26.9238 194.499 27.1611 194.64C27.3896 194.789 27.6797 194.912 28.0225 195.018C28.3652 195.123 28.7256 195.176 29.0947 195.176C30.2021 195.176 31.1689 194.736 31.9951 193.857C32.8213 192.979 33.2344 191.915 33.2344 190.685C33.2344 189.454 32.8125 188.391 31.9863 187.512C31.1602 186.624 30.1934 186.185 29.0947 186.185C28.7256 186.185 28.3652 186.237 28.0137 186.343C27.6621 186.448 27.3809 186.571 27.1611 186.712C26.9326 186.853 26.7305 187.011 26.5371 187.187C26.3438 187.362 26.2207 187.485 26.1592 187.556C26.0977 187.626 26.0537 187.688 26.0361 187.723V186.369H24.7793V198.788H26.0361V193.646ZM37.374 196.257C37.0488 197.162 36.5039 197.61 35.7393 197.61C35.4404 197.61 35.1416 197.549 34.8428 197.426V198.604L34.9658 198.639C35.0537 198.674 35.1943 198.709 35.3701 198.735C35.5459 198.771 35.7305 198.779 35.9238 198.779C36.5479 198.779 37.0664 198.595 37.4795 198.208C37.8838 197.821 38.2705 197.171 38.6309 196.257L42.5947 186.36H41.2412L38.4551 193.383L35.6602 186.36H34.3066L37.8223 195L37.374 196.257ZM49.8809 195H51.1465V186.36H49.8809V190.228L49.6172 190.43C49.4414 190.57 49.1602 190.711 48.7734 190.843C48.3867 190.975 47.9736 191.036 47.543 191.036C46.9102 191.036 46.3916 190.834 45.9873 190.43C45.583 190.025 45.3809 189.507 45.3809 188.883V186.36H44.124V188.883C44.124 189.867 44.4316 190.676 45.0469 191.291C45.6621 191.906 46.4707 192.214 47.4551 192.214C48.4043 192.214 49.2129 191.977 49.8809 191.493V195ZM61.6758 191.15L61.7637 190.5C61.7637 189.252 61.3682 188.224 60.5771 187.406C59.7861 186.589 58.8018 186.176 57.624 186.176C56.4814 186.176 55.4971 186.615 54.6533 187.494C53.8096 188.373 53.3965 189.428 53.3965 190.676C53.3965 191.924 53.8184 192.987 54.6709 193.866C55.5146 194.745 56.5342 195.176 57.7119 195.176C58.1426 195.176 58.5645 195.114 58.9775 194.982C59.3906 194.851 59.7246 194.71 59.9883 194.552C60.252 194.394 60.4893 194.218 60.7178 194.016C60.9463 193.813 61.0869 193.673 61.1572 193.585C61.2275 193.497 61.2803 193.436 61.3154 193.383L60.5068 192.574L60.1992 192.926C60.0059 193.172 59.6719 193.409 59.2148 193.646C58.749 193.893 58.248 194.007 57.7119 194.007C56.9033 194.007 56.209 193.726 55.6113 193.154C55.0137 192.592 54.6973 191.915 54.6533 191.133L61.6758 191.15ZM57.624 187.354C58.3799 187.354 59.0215 187.608 59.5576 188.118C60.0938 188.628 60.4102 189.278 60.5068 190.052H54.6533C54.75 189.322 55.084 188.689 55.6465 188.153C56.209 187.626 56.8682 187.354 57.624 187.354ZM70.2188 195H71.4844V186.36H70.2188V190.052H65.2705V186.36H64.0137V195H65.2705V191.221H70.2188V195ZM80.5723 195H81.8379V186.36H80.5723V190.052H75.624V186.36H74.3672V195H75.624V191.221H80.5723V195ZM84.1758 189.243C84.1758 189.656 84.2373 190.025 84.3691 190.351C84.501 190.667 84.6416 190.922 84.7998 191.098C84.958 191.273 85.1338 191.432 85.3447 191.555C85.5469 191.678 85.6875 191.757 85.7754 191.792C85.8633 191.827 85.9248 191.845 85.9775 191.854L84 195H85.4414L87.2344 192.117H89.7568V195H91.0137V186.36H87.3311C86.3906 186.36 85.626 186.642 85.0459 187.187C84.4658 187.731 84.1758 188.417 84.1758 189.243ZM89.7568 187.529V190.948H87.3311C86.751 190.948 86.2852 190.79 85.9512 190.474C85.6084 190.157 85.4414 189.753 85.4414 189.243C85.4414 188.742 85.6084 188.329 85.9512 188.013C86.2939 187.696 86.751 187.538 87.3311 187.538L89.7568 187.529ZM97.3242 195H108.574V197.162H109.831V193.831H108.478V186.36H107.221V193.831H103.547V186.36H102.272V193.831H98.5811V186.36H97.3242V195ZM118.734 190.685C118.734 191.616 118.418 192.407 117.803 193.049C117.188 193.69 116.44 194.007 115.579 194.007C114.718 194.007 113.971 193.69 113.355 193.04C112.74 192.39 112.433 191.607 112.433 190.676C112.433 189.744 112.74 188.962 113.355 188.32C113.971 187.679 114.718 187.354 115.579 187.354C116.44 187.354 117.188 187.679 117.803 188.32C118.418 188.962 118.734 189.753 118.734 190.685ZM111.176 190.685C111.176 191.95 111.598 193.014 112.459 193.884C113.32 194.745 114.357 195.185 115.588 195.185C116.81 195.185 117.847 194.745 118.699 193.884C119.561 193.014 119.982 191.95 119.982 190.685C119.982 189.419 119.561 188.355 118.699 187.485C117.847 186.615 116.81 186.176 115.588 186.176C114.357 186.176 113.32 186.615 112.459 187.485C111.598 188.355 111.176 189.419 111.176 190.685ZM129.809 188.61V195H131.065V186.36H130.072L126.653 190.676L123.234 186.36H122.25V195H123.507V188.61L126.653 192.574L129.809 188.61ZM133.957 195H135.214V186.36H133.957V195ZM133.772 183.478C133.772 183.706 133.843 183.899 134.001 184.058C134.159 184.216 134.353 184.286 134.581 184.286C134.81 184.286 134.994 184.216 135.152 184.058C135.311 183.899 135.39 183.706 135.39 183.478C135.39 183.249 135.311 183.064 135.152 182.906C134.994 182.748 134.81 182.669 134.581 182.669C134.353 182.669 134.159 182.748 134.001 182.906C133.843 183.064 133.772 183.249 133.772 183.478ZM137.473 190.676C137.473 191.924 137.895 192.987 138.747 193.866C139.591 194.745 140.61 195.176 141.788 195.176C142.21 195.176 142.623 195.114 143.027 194.982C143.432 194.851 143.766 194.71 144.021 194.552C144.284 194.394 144.53 194.218 144.759 194.016C144.996 193.813 145.154 193.673 145.225 193.585C145.295 193.497 145.348 193.436 145.383 193.383L144.486 192.574L144.196 192.926C143.994 193.172 143.669 193.409 143.221 193.646C142.764 193.893 142.289 194.007 141.788 194.007C140.962 194.007 140.241 193.69 139.635 193.049C139.028 192.407 138.729 191.616 138.729 190.685C138.729 189.753 139.028 188.962 139.635 188.32C140.241 187.679 140.962 187.354 141.788 187.354C142.113 187.354 142.43 187.406 142.729 187.503C143.027 187.608 143.265 187.723 143.458 187.846C143.643 187.969 143.818 188.118 143.977 188.285C144.135 188.461 144.24 188.575 144.284 188.637C144.337 188.707 144.372 188.751 144.39 188.786L145.295 187.89L144.917 187.477C144.671 187.195 144.249 186.905 143.669 186.615C143.089 186.325 142.456 186.176 141.779 186.176C140.61 186.176 139.6 186.615 138.747 187.494C137.895 188.373 137.473 189.428 137.473 190.676ZM146.824 189.243C146.824 189.656 146.886 190.025 147.018 190.351C147.149 190.667 147.29 190.922 147.448 191.098C147.606 191.273 147.782 191.432 147.993 191.555C148.195 191.678 148.336 191.757 148.424 191.792C148.512 191.827 148.573 191.845 148.626 191.854L146.648 195H148.09L149.883 192.117H152.405V195H153.662V186.36H149.979C149.039 186.36 148.274 186.642 147.694 187.187C147.114 187.731 146.824 188.417 146.824 189.243ZM152.405 187.529V190.948H149.979C149.399 190.948 148.934 190.79 148.6 190.474C148.257 190.157 148.09 189.753 148.09 189.243C148.09 188.742 148.257 188.329 148.6 188.013C148.942 187.696 149.399 187.538 149.979 187.538L152.405 187.529ZM162.117 195H163.383V186.36H162.117V190.228L161.854 190.43C161.678 190.57 161.396 190.711 161.01 190.843C160.623 190.975 160.21 191.036 159.779 191.036C159.146 191.036 158.628 190.834 158.224 190.43C157.819 190.025 157.617 189.507 157.617 188.883V186.36H156.36V188.883C156.36 189.867 156.668 190.676 157.283 191.291C157.898 191.906 158.707 192.214 159.691 192.214C160.641 192.214 161.449 191.977 162.117 191.493V195ZM172.471 195H173.736V186.36H172.471V190.052H167.522V186.36H166.266V195H167.522V191.221H172.471V195ZM183.545 190.685C183.545 191.616 183.229 192.407 182.613 193.049C181.998 193.69 181.251 194.007 180.39 194.007C179.528 194.007 178.781 193.69 178.166 193.04C177.551 192.39 177.243 191.607 177.243 190.676C177.243 189.744 177.551 188.962 178.166 188.32C178.781 187.679 179.528 187.354 180.39 187.354C181.251 187.354 181.998 187.679 182.613 188.32C183.229 188.962 183.545 189.753 183.545 190.685ZM175.986 190.685C175.986 191.95 176.408 193.014 177.27 193.884C178.131 194.745 179.168 195.185 180.398 195.185C181.62 195.185 182.657 194.745 183.51 193.884C184.371 193.014 184.793 191.95 184.793 190.685C184.793 189.419 184.371 188.355 183.51 187.485C182.657 186.615 181.62 186.176 180.398 186.176C179.168 186.176 178.131 186.615 177.27 187.485C176.408 188.355 175.986 189.419 175.986 190.685Z" fill="#323264"/>
<path d="M58.1758 130.676L58.5273 130.5C58.791 130.395 59.0898 130.201 59.4414 129.92C59.793 129.639 60.127 129.305 60.4785 128.9C60.8301 128.514 61.1289 127.986 61.375 127.354C61.6211 126.721 61.7617 126.018 61.7617 125.279C61.7617 123.293 60.9883 121.623 59.4414 120.287C57.8945 118.951 55.8379 118.266 53.3066 118.266C52.1992 118.266 51.1445 118.406 50.1426 118.688C49.123 118.969 48.3145 119.268 47.7168 119.584C47.1016 119.9 46.5215 120.287 45.9941 120.727C45.4668 121.184 45.1328 121.482 44.9922 121.658C44.8516 121.834 44.7461 121.957 44.6758 122.045L47.9102 125.279L48.4551 124.699C48.8066 124.33 49.3691 123.943 50.1777 123.539C50.9863 123.152 51.8477 122.941 52.7617 122.941C53.8164 122.941 54.6602 123.223 55.2754 123.75C55.873 124.295 56.1895 124.98 56.1895 125.824C56.1895 126.738 55.873 127.477 55.2578 128.039C54.6426 128.602 53.8164 128.883 52.7617 128.883H50.248V133.383H52.9551C54.2383 133.383 55.2402 133.699 55.9785 134.297C56.7168 134.912 57.0859 135.686 57.0859 136.617C57.0859 137.566 56.6992 138.34 55.9609 138.938C55.2227 139.553 54.1504 139.852 52.7617 139.852C52.0586 139.852 51.3906 139.764 50.7402 139.57C50.0898 139.395 49.5625 139.184 49.1406 138.938C48.7188 138.691 48.332 138.428 47.9629 138.111C47.5762 137.795 47.3477 137.584 47.2422 137.461C47.1367 137.338 47.0488 137.232 47.0137 137.162L43.7617 140.572L44.1309 140.977C44.3594 141.275 44.7461 141.609 45.2734 141.996C45.8008 142.383 46.4336 142.752 47.1367 143.139C47.8398 143.525 48.7363 143.859 49.8438 144.141C50.9512 144.422 52.1113 144.545 53.3066 144.545C56.1191 144.545 58.3691 143.807 60.0918 142.312C61.8145 140.836 62.6758 139.061 62.6758 136.986C62.6758 136.072 62.5 135.246 62.1836 134.473C61.8496 133.699 61.4805 133.102 61.0938 132.662C60.707 132.24 60.25 131.854 59.7402 131.52C59.2129 131.186 58.8613 130.975 58.6504 130.887C58.4395 130.799 58.2812 130.729 58.1758 130.676ZM71.5 131.396C71.5 128.76 72.0273 126.721 73.0996 125.279C74.1543 123.838 75.4199 123.117 76.8965 123.117C78.3555 123.117 79.6211 123.838 80.6934 125.279C81.748 126.721 82.293 128.76 82.293 131.396C82.293 134.033 81.748 136.072 80.6934 137.514C79.6211 138.955 78.3555 139.676 76.8965 139.676C75.4199 139.676 74.1543 138.955 73.0996 137.514C72.0273 136.072 71.5 134.033 71.5 131.396ZM87.6895 131.396C87.6895 127.459 86.6348 124.295 84.543 121.887C82.4336 119.479 79.8848 118.266 76.8965 118.266C73.8906 118.266 71.3418 119.479 69.25 121.887C67.1406 124.295 66.1035 127.459 66.1035 131.396C66.1035 135.334 67.1406 138.516 69.25 140.924C71.3418 143.35 73.8906 144.545 76.8965 144.545C79.8848 144.545 82.4336 143.35 84.543 140.924C86.6348 138.516 87.6895 135.334 87.6895 131.396ZM101.189 141.838V135.721H107.324V131.221H101.189V125.104H97.0586V131.221H90.9414V135.721H97.0586V141.838H101.189Z" fill="url(#paint1_linear)"/>
<path d="M19.2321 133.332V132.774C19.2321 132.093 18.6806 131.542 18.0006 131.542C17.3201 131.542 16.7686 132.093 16.7686 132.774V133.332C16.7686 134.012 17.3201 134.564 18.0006 134.564C18.6801 134.564 19.2321 134.012 19.2321 133.332Z" fill="#F0145A"/>
<path d="M20.0769 134.013C19.8039 134.907 18.9814 135.563 18.0004 135.563C17.0189 135.563 16.1964 134.907 15.9234 134.013H7.43886C6.90336 134.013 6.39736 133.889 5.94336 133.673V139.306C5.94336 140.406 6.84336 141.306 7.94336 141.306H28.0564C29.1564 141.306 30.0564 140.406 30.0564 139.306V133.673C29.6019 133.889 29.0964 134.014 28.5609 134.014H20.0769V134.013Z" fill="#F0145A"/>
<path d="M28.4775 123.897H23.677C23.387 122.084 21.8165 120.693 19.923 120.693H16.0765C14.183 120.693 12.613 122.084 12.3225 123.897H7.52247C6.37647 123.897 5.43896 124.797 5.43896 125.897V130.514C5.43896 131.618 6.33447 132.514 7.43897 132.514H15.829C15.8575 131.938 16.1045 131.421 16.495 131.047C16.507 131.036 16.521 131.027 16.5335 131.016C16.62 130.936 16.71 130.861 16.8085 130.796C16.8435 130.773 16.8835 130.757 16.92 130.736C17.001 130.689 17.081 130.641 17.1685 130.605C17.237 130.576 17.311 130.56 17.383 130.538C17.445 130.52 17.504 130.495 17.5685 130.482C17.708 130.454 17.8525 130.439 18 130.439C18.148 130.439 18.292 130.454 18.4315 130.482C18.4955 130.495 18.5545 130.52 18.6165 130.538C18.6885 130.56 18.7625 130.576 18.831 130.605C18.918 130.641 18.9975 130.689 19.0785 130.736C19.1155 130.757 19.1555 130.773 19.191 130.797C19.2895 130.861 19.379 130.936 19.4655 131.016C19.478 131.027 19.4925 131.036 19.5045 131.048C19.8955 131.422 20.142 131.939 20.1705 132.515H28.5605C29.665 132.515 30.5605 131.619 30.5605 130.515V125.898C30.561 124.797 29.6235 123.897 28.4775 123.897ZM14.248 123.897C14.503 123.127 15.2215 122.565 16.0765 122.565H19.923C20.778 122.565 21.4965 123.127 21.7515 123.897H14.248Z" fill="#F0145A"/>
<path d="M5.61035 81.6846C5.61035 80.7969 5.91797 80.0234 6.55078 79.3555C7.18359 78.6875 7.88672 78.3535 8.66895 78.3535C9.40723 78.3535 10.0752 78.6787 10.6641 79.3291C11.2529 79.9795 11.5518 80.7617 11.5518 81.6846C11.5518 82.6074 11.2529 83.3896 10.6641 84.04C10.0752 84.6904 9.40723 85.0068 8.66895 85.0068C7.88672 85.0068 7.18359 84.6816 6.55078 84.0137C5.91797 83.3457 5.61035 82.5723 5.61035 81.6846ZM5.61035 84.6465L5.7334 84.8135C5.82129 84.9189 5.94434 85.0508 6.12012 85.2002C6.2959 85.3496 6.49805 85.499 6.73535 85.6396C6.96387 85.7891 7.25391 85.9121 7.59668 86.0176C7.93945 86.123 8.2998 86.1758 8.66895 86.1758C9.77637 86.1758 10.7432 85.7363 11.5693 84.8574C12.3955 83.9785 12.8086 82.915 12.8086 81.6846C12.8086 80.4541 12.3867 79.3906 11.5605 78.5117C10.7344 77.624 9.76758 77.1846 8.66895 77.1846C8.2998 77.1846 7.93945 77.2373 7.58789 77.3428C7.23633 77.4482 6.95508 77.5713 6.73535 77.7119C6.50684 77.8525 6.30469 78.0107 6.11133 78.1865C5.91797 78.3623 5.79492 78.4854 5.7334 78.5557C5.67188 78.626 5.62793 78.6875 5.61035 78.7227V77.3691H4.35352V89.7881H5.61035V84.6465ZM21.9844 81.6846C21.9844 82.6162 21.668 83.4072 21.0527 84.0488C20.4375 84.6904 19.6904 85.0068 18.8291 85.0068C17.9678 85.0068 17.2207 84.6904 16.6055 84.04C15.9902 83.3896 15.6826 82.6074 15.6826 81.6758C15.6826 80.7441 15.9902 79.9619 16.6055 79.3203C17.2207 78.6787 17.9678 78.3535 18.8291 78.3535C19.6904 78.3535 20.4375 78.6787 21.0527 79.3203C21.668 79.9619 21.9844 80.7529 21.9844 81.6846ZM14.4258 81.6846C14.4258 82.9502 14.8477 84.0137 15.709 84.8838C16.5703 85.7451 17.6074 86.1846 18.8379 86.1846C20.0596 86.1846 21.0967 85.7451 21.9492 84.8838C22.8105 84.0137 23.2324 82.9502 23.2324 81.6846C23.2324 80.4189 22.8105 79.3555 21.9492 78.4854C21.0967 77.6152 20.0596 77.1758 18.8379 77.1758C17.6074 77.1758 16.5703 77.6152 15.709 78.4854C14.8477 79.3555 14.4258 80.4189 14.4258 81.6846ZM26.7568 83.5742L28.4707 81.7725L31.5293 86H32.9707L29.2793 80.8672L32.6104 77.3604H31.0723L26.7568 81.9482V77.3604H25.5V86H26.7568V83.5742ZM34.5879 86H35.8447V77.3604H34.5879V86ZM34.4033 74.4775C34.4033 74.7061 34.4736 74.8994 34.6318 75.0576C34.79 75.2158 34.9834 75.2861 35.2119 75.2861C35.4404 75.2861 35.625 75.2158 35.7832 75.0576C35.9414 74.8994 36.0205 74.7061 36.0205 74.4775C36.0205 74.249 35.9414 74.0645 35.7832 73.9062C35.625 73.748 35.4404 73.6689 35.2119 73.6689C34.9834 73.6689 34.79 73.748 34.6318 73.9062C34.4736 74.0645 34.4033 74.249 34.4033 74.4775ZM38.7363 77.3604V86H42.876C43.7549 86 44.4404 85.7803 44.9326 85.3232C45.416 84.875 45.6621 84.2598 45.6621 83.4775C45.6621 83.1611 45.6094 82.8711 45.5039 82.6074C45.3984 82.3525 45.2842 82.1592 45.1611 82.0186C45.0381 81.8779 44.8887 81.7637 44.7217 81.6582C44.5547 81.5527 44.4404 81.4912 44.3701 81.4648C44.2998 81.4473 44.2559 81.4297 44.2207 81.4121L44.4932 81.2451C44.6689 81.1309 44.8535 80.9199 45.0293 80.6211C45.2051 80.3223 45.3018 79.9795 45.3018 79.6104C45.3018 78.96 45.0645 78.4238 44.5898 78.002C44.1152 77.5801 43.4824 77.3604 42.6914 77.3604H38.7363ZM42.876 81.9482C43.3682 81.9482 43.7461 82.0801 44.0098 82.3262C44.2734 82.5811 44.4053 82.9326 44.4053 83.3896C44.4053 83.8467 44.2734 84.207 44.0098 84.4531C43.7461 84.708 43.3682 84.8311 42.876 84.8311H39.9932V81.9482H42.876ZM44.0449 79.6982C44.0449 80.4805 43.5879 80.8672 42.6914 80.8672H39.9932V78.5293H42.6914C43.5879 78.5293 44.0449 78.9248 44.0449 79.6982ZM52.7725 81.6846C52.7725 80.7969 53.0801 80.0234 53.7129 79.3555C54.3457 78.6875 55.0488 78.3535 55.8311 78.3535C56.5693 78.3535 57.2373 78.6787 57.8262 79.3291C58.415 79.9795 58.7139 80.7617 58.7139 81.6846C58.7139 82.6074 58.415 83.3896 57.8262 84.04C57.2373 84.6904 56.5693 85.0068 55.8311 85.0068C55.0488 85.0068 54.3457 84.6816 53.7129 84.0137C53.0801 83.3457 52.7725 82.5723 52.7725 81.6846ZM52.7725 84.6465L52.8955 84.8135C52.9834 84.9189 53.1064 85.0508 53.2822 85.2002C53.458 85.3496 53.6602 85.499 53.8975 85.6396C54.126 85.7891 54.416 85.9121 54.7588 86.0176C55.1016 86.123 55.4619 86.1758 55.8311 86.1758C56.9385 86.1758 57.9053 85.7363 58.7314 84.8574C59.5576 83.9785 59.9707 82.915 59.9707 81.6846C59.9707 80.4541 59.5488 79.3906 58.7227 78.5117C57.8965 77.624 56.9297 77.1846 55.8311 77.1846C55.4619 77.1846 55.1016 77.2373 54.75 77.3428C54.3984 77.4482 54.1172 77.5713 53.8975 77.7119C53.6689 77.8525 53.4668 78.0107 53.2734 78.1865C53.0801 78.3623 52.957 78.4854 52.8955 78.5557C52.834 78.626 52.79 78.6875 52.7725 78.7227V77.3691H51.5156V89.7881H52.7725V84.6465ZM69.8672 82.1504L69.9551 81.5C69.9551 80.252 69.5596 79.2236 68.7686 78.4062C67.9775 77.5889 66.9932 77.1758 65.8154 77.1758C64.6729 77.1758 63.6885 77.6152 62.8447 78.4941C62.001 79.373 61.5879 80.4277 61.5879 81.6758C61.5879 82.9238 62.0098 83.9873 62.8623 84.8662C63.7061 85.7451 64.7256 86.1758 65.9033 86.1758C66.334 86.1758 66.7559 86.1143 67.1689 85.9824C67.582 85.8506 67.916 85.71 68.1797 85.5518C68.4434 85.3936 68.6807 85.2178 68.9092 85.0156C69.1377 84.8135 69.2783 84.6729 69.3486 84.585C69.4189 84.4971 69.4717 84.4355 69.5068 84.3828L68.6982 83.5742L68.3906 83.9258C68.1973 84.1719 67.8633 84.4092 67.4062 84.6465C66.9404 84.8926 66.4395 85.0068 65.9033 85.0068C65.0947 85.0068 64.4004 84.7256 63.8027 84.1543C63.2051 83.5918 62.8887 82.915 62.8447 82.1328L69.8672 82.1504ZM65.8154 78.3535C66.5713 78.3535 67.2129 78.6084 67.749 79.1182C68.2852 79.6279 68.6016 80.2783 68.6982 81.0518H62.8447C62.9414 80.3223 63.2754 79.6895 63.8379 79.1533C64.4004 78.626 65.0596 78.3535 65.8154 78.3535ZM73.1016 77.3604V79.8828C73.1016 81.2979 73.0225 82.3877 72.8818 83.1523C72.7412 83.9082 72.5654 84.4004 72.3545 84.6113C72.1436 84.8223 71.8535 84.9277 71.4844 84.9277C71.2383 84.9277 71.001 84.8662 70.7637 84.752V86.0088L70.8867 86.0439C70.957 86.0791 71.0625 86.1055 71.2119 86.1406C71.3613 86.167 71.5107 86.1846 71.6602 86.1846C72.0908 86.1846 72.46 86.0967 72.7676 85.9209C73.0664 85.7451 73.3477 85.4375 73.6025 84.998C73.8486 84.5586 74.042 83.9082 74.165 83.0645C74.2881 82.2207 74.3584 81.1572 74.3584 79.8916V78.5381H78.1377V86.0088H79.4033V77.3691L73.1016 77.3604ZM89.9238 82.1504L90.0117 81.5C90.0117 80.252 89.6162 79.2236 88.8252 78.4062C88.0342 77.5889 87.0498 77.1758 85.8721 77.1758C84.7295 77.1758 83.7451 77.6152 82.9014 78.4941C82.0576 79.373 81.6445 80.4277 81.6445 81.6758C81.6445 82.9238 82.0664 83.9873 82.9189 84.8662C83.7627 85.7451 84.7822 86.1758 85.96 86.1758C86.3906 86.1758 86.8125 86.1143 87.2256 85.9824C87.6387 85.8506 87.9727 85.71 88.2363 85.5518C88.5 85.3936 88.7373 85.2178 88.9658 85.0156C89.1943 84.8135 89.335 84.6729 89.4053 84.585C89.4756 84.4971 89.5283 84.4355 89.5635 84.3828L88.7549 83.5742L88.4473 83.9258C88.2539 84.1719 87.9199 84.4092 87.4629 84.6465C86.9971 84.8926 86.4961 85.0068 85.96 85.0068C85.1514 85.0068 84.457 84.7256 83.8594 84.1543C83.2617 83.5918 82.9453 82.915 82.9014 82.1328L89.9238 82.1504ZM85.8721 78.3535C86.6279 78.3535 87.2695 78.6084 87.8057 79.1182C88.3418 79.6279 88.6582 80.2783 88.7549 81.0518H82.9014C82.998 80.3223 83.332 79.6895 83.8945 79.1533C84.457 78.626 85.1162 78.3535 85.8721 78.3535ZM92.2617 77.3604V86H96.4014C97.2803 86 97.9658 85.7803 98.458 85.3232C98.9414 84.875 99.1875 84.2598 99.1875 83.4775C99.1875 83.1611 99.1348 82.8711 99.0293 82.6074C98.9238 82.3525 98.8096 82.1592 98.6865 82.0186C98.5635 81.8779 98.4141 81.7637 98.2471 81.6582C98.0801 81.5527 97.9658 81.4912 97.8955 81.4648C97.8252 81.4473 97.7812 81.4297 97.7461 81.4121L98.0186 81.2451C98.1943 81.1309 98.3789 80.9199 98.5547 80.6211C98.7305 80.3223 98.8271 79.9795 98.8271 79.6104C98.8271 78.96 98.5898 78.4238 98.1152 78.002C97.6406 77.5801 97.0078 77.3604 96.2168 77.3604H92.2617ZM96.4014 81.9482C96.8936 81.9482 97.2715 82.0801 97.5352 82.3262C97.7988 82.5811 97.9307 82.9326 97.9307 83.3896C97.9307 83.8467 97.7988 84.207 97.5352 84.4531C97.2715 84.708 96.8936 84.8311 96.4014 84.8311H93.5186V81.9482H96.4014ZM97.5703 79.6982C97.5703 80.4805 97.1133 80.8672 96.2168 80.8672H93.5186V78.5293H96.2168C97.1133 78.5293 97.5703 78.9248 97.5703 79.6982ZM103.503 81.0518C102.686 81.1924 102.062 81.4824 101.631 81.9219C101.191 82.3613 100.98 82.9414 100.98 83.6621C100.98 84.3213 101.271 84.9014 101.859 85.4111C102.448 85.9209 103.178 86.1758 104.039 86.1758C104.382 86.1758 104.716 86.1318 105.041 86.0352C105.366 85.9473 105.63 85.8418 105.832 85.7188C106.025 85.5957 106.21 85.4639 106.386 85.3057C106.562 85.1475 106.667 85.042 106.72 84.9805C106.772 84.9189 106.808 84.8662 106.834 84.8311V86H108.091V80.5068C108.091 79.5664 107.766 78.7754 107.115 78.1338C106.465 77.501 105.656 77.1758 104.672 77.1758C104.285 77.1758 103.898 77.2373 103.529 77.3516C103.16 77.4658 102.861 77.5977 102.633 77.7383C102.404 77.8877 102.185 78.0547 101.974 78.2393C101.763 78.4238 101.631 78.5557 101.569 78.626C101.508 78.6963 101.464 78.7578 101.429 78.8018L102.237 79.6104L102.51 79.3027C102.686 79.0918 102.976 78.8809 103.38 78.6699C103.784 78.459 104.215 78.3535 104.672 78.3535C105.305 78.3535 105.823 78.5557 106.228 78.9512C106.632 79.3555 106.834 79.874 106.834 80.5068L103.503 81.0518ZM104.039 85.0068C103.477 85.0068 103.028 84.8838 102.712 84.6289C102.396 84.374 102.237 84.0488 102.237 83.6621C102.237 82.8535 102.782 82.3438 103.863 82.1328L106.834 81.5879V82.1328C106.834 82.9854 106.57 83.6797 106.043 84.207C105.516 84.7432 104.848 85.0068 104.039 85.0068ZM117.17 86H118.436V77.3604H117.17V81.0518H112.222V77.3604H110.965V86H112.222V82.2207H117.17V86ZM120.237 78.5293H123.296V86H124.553V78.5293H127.611V77.3604H120.237V78.5293ZM135.627 86H136.893V77.3604H135.627V81.0518H130.679V77.3604H129.422V86H130.679V82.2207H135.627V86ZM146.701 81.6846C146.701 82.6162 146.385 83.4072 145.77 84.0488C145.154 84.6904 144.407 85.0068 143.546 85.0068C142.685 85.0068 141.938 84.6904 141.322 84.04C140.707 83.3896 140.399 82.6074 140.399 81.6758C140.399 80.7441 140.707 79.9619 141.322 79.3203C141.938 78.6787 142.685 78.3535 143.546 78.3535C144.407 78.3535 145.154 78.6787 145.77 79.3203C146.385 79.9619 146.701 80.7529 146.701 81.6846ZM139.143 81.6846C139.143 82.9502 139.564 84.0137 140.426 84.8838C141.287 85.7451 142.324 86.1846 143.555 86.1846C144.776 86.1846 145.813 85.7451 146.666 84.8838C147.527 84.0137 147.949 82.9502 147.949 81.6846C147.949 80.4189 147.527 79.3555 146.666 78.4854C145.813 77.6152 144.776 77.1758 143.555 77.1758C142.324 77.1758 141.287 77.6152 140.426 78.4854C139.564 79.3555 139.143 80.4189 139.143 81.6846ZM155.974 77.3604H150.217V86H151.474V78.5293H155.974V77.3604ZM164.525 81.6846C164.525 82.6162 164.209 83.4072 163.594 84.0488C162.979 84.6904 162.231 85.0068 161.37 85.0068C160.509 85.0068 159.762 84.6904 159.146 84.04C158.531 83.3896 158.224 82.6074 158.224 81.6758C158.224 80.7441 158.531 79.9619 159.146 79.3203C159.762 78.6787 160.509 78.3535 161.37 78.3535C162.231 78.3535 162.979 78.6787 163.594 79.3203C164.209 79.9619 164.525 80.7529 164.525 81.6846ZM156.967 81.6846C156.967 82.9502 157.389 84.0137 158.25 84.8838C159.111 85.7451 160.148 86.1846 161.379 86.1846C162.601 86.1846 163.638 85.7451 164.49 84.8838C165.352 84.0137 165.773 82.9502 165.773 81.6846C165.773 80.4189 165.352 79.3555 164.49 78.4854C163.638 77.6152 162.601 77.1758 161.379 77.1758C160.148 77.1758 159.111 77.6152 158.25 78.4854C157.389 79.3555 156.967 80.4189 156.967 81.6846ZM179.476 84.8311H178.122V77.3604H172.189V79.8828C172.189 80.5156 172.128 81.1309 172.022 81.7109C171.917 82.291 171.794 82.7568 171.653 83.1084C171.513 83.46 171.363 83.7764 171.188 84.0752C171.012 84.374 170.88 84.5674 170.81 84.6553C170.739 84.7432 170.687 84.7959 170.651 84.8311H170.027V88.1621H171.284V86H178.219V88.1621H179.476V84.8311ZM173.446 78.5293H176.865V84.8311H172.005L172.365 84.3301C172.603 83.9961 172.84 83.416 173.077 82.5898C173.323 81.7725 173.438 80.8672 173.438 79.8828L173.446 78.5293ZM188.379 81.6846C188.379 82.6162 188.062 83.4072 187.447 84.0488C186.832 84.6904 186.085 85.0068 185.224 85.0068C184.362 85.0068 183.615 84.6904 183 84.04C182.385 83.3896 182.077 82.6074 182.077 81.6758C182.077 80.7441 182.385 79.9619 183 79.3203C183.615 78.6787 184.362 78.3535 185.224 78.3535C186.085 78.3535 186.832 78.6787 187.447 79.3203C188.062 79.9619 188.379 80.7529 188.379 81.6846ZM180.82 81.6846C180.82 82.9502 181.242 84.0137 182.104 84.8838C182.965 85.7451 184.002 86.1846 185.232 86.1846C186.454 86.1846 187.491 85.7451 188.344 84.8838C189.205 84.0137 189.627 82.9502 189.627 81.6846C189.627 80.4189 189.205 79.3555 188.344 78.4854C187.491 77.6152 186.454 77.1758 185.232 77.1758C184.002 77.1758 182.965 77.6152 182.104 78.4854C181.242 79.3555 180.82 80.4189 180.82 81.6846ZM191.262 81.6758C191.262 82.9238 191.684 83.9873 192.536 84.8662C193.38 85.7451 194.399 86.1758 195.577 86.1758C195.999 86.1758 196.412 86.1143 196.816 85.9824C197.221 85.8506 197.555 85.71 197.81 85.5518C198.073 85.3936 198.319 85.2178 198.548 85.0156C198.785 84.8135 198.943 84.6729 199.014 84.585C199.084 84.4971 199.137 84.4355 199.172 84.3828L198.275 83.5742L197.985 83.9258C197.783 84.1719 197.458 84.4092 197.01 84.6465C196.553 84.8926 196.078 85.0068 195.577 85.0068C194.751 85.0068 194.03 84.6904 193.424 84.0488C192.817 83.4072 192.519 82.6162 192.519 81.6846C192.519 80.7529 192.817 79.9619 193.424 79.3203C194.03 78.6787 194.751 78.3535 195.577 78.3535C195.902 78.3535 196.219 78.4062 196.518 78.5029C196.816 78.6084 197.054 78.7227 197.247 78.8457C197.432 78.9688 197.607 79.1182 197.766 79.2852C197.924 79.4609 198.029 79.5752 198.073 79.6367C198.126 79.707 198.161 79.751 198.179 79.7861L199.084 78.8896L198.706 78.4766C198.46 78.1953 198.038 77.9053 197.458 77.6152C196.878 77.3252 196.245 77.1758 195.568 77.1758C194.399 77.1758 193.389 77.6152 192.536 78.4941C191.684 79.373 191.262 80.4277 191.262 81.6758ZM201.158 77.3604V86H205.298C206.177 86 206.862 85.7803 207.354 85.3232C207.838 84.875 208.084 84.2598 208.084 83.4775C208.084 83.1611 208.031 82.8711 207.926 82.6074C207.82 82.3525 207.706 82.1592 207.583 82.0186C207.46 81.8779 207.311 81.7637 207.144 81.6582C206.977 81.5527 206.862 81.4912 206.792 81.4648C206.722 81.4473 206.678 81.4297 206.643 81.4121L206.915 81.2451C207.091 81.1309 207.275 80.9199 207.451 80.6211C207.627 80.3223 207.724 79.9795 207.724 79.6104C207.724 78.96 207.486 78.4238 207.012 78.002C206.537 77.5801 205.904 77.3604 205.113 77.3604H201.158ZM205.298 81.9482C205.79 81.9482 206.168 82.0801 206.432 82.3262C206.695 82.5811 206.827 82.9326 206.827 83.3896C206.827 83.8467 206.695 84.207 206.432 84.4531C206.168 84.708 205.79 84.8311 205.298 84.8311H202.415V81.9482H205.298ZM206.467 79.6982C206.467 80.4805 206.01 80.8672 205.113 80.8672H202.415V78.5293H205.113C206.01 78.5293 206.467 78.9248 206.467 79.6982ZM210.51 86H211.767V77.3604H210.51V86ZM210.325 74.4775C210.325 74.7061 210.396 74.8994 210.554 75.0576C210.712 75.2158 210.905 75.2861 211.134 75.2861C211.362 75.2861 211.547 75.2158 211.705 75.0576C211.863 74.8994 211.942 74.7061 211.942 74.4775C211.942 74.249 211.863 74.0645 211.705 73.9062C211.547 73.748 211.362 73.6689 211.134 73.6689C210.905 73.6689 210.712 73.748 210.554 73.9062C210.396 74.0645 210.325 74.249 210.325 74.4775ZM222.665 84.8311H221.312V77.3604H215.379V79.8828C215.379 80.5156 215.317 81.1309 215.212 81.7109C215.106 82.291 214.983 82.7568 214.843 83.1084C214.702 83.46 214.553 83.7764 214.377 84.0752C214.201 84.374 214.069 84.5674 213.999 84.6553C213.929 84.7432 213.876 84.7959 213.841 84.8311H213.217V88.1621H214.474V86H221.408V88.1621H222.665V84.8311ZM216.636 78.5293H220.055V84.8311H215.194L215.555 84.3301C215.792 83.9961 216.029 83.416 216.267 82.5898C216.513 81.7725 216.627 80.8672 216.627 79.8828L216.636 78.5293ZM226.532 87.2568C226.207 88.1621 225.662 88.6104 224.897 88.6104C224.599 88.6104 224.3 88.5488 224.001 88.4258V89.6035L224.124 89.6387C224.212 89.6738 224.353 89.709 224.528 89.7354C224.704 89.7705 224.889 89.7793 225.082 89.7793C225.706 89.7793 226.225 89.5947 226.638 89.208C227.042 88.8213 227.429 88.1709 227.789 87.2568L231.753 77.3604H230.399L227.613 84.3828L224.818 77.3604H223.465L226.98 86L226.532 87.2568Z" fill="#323264"/>
<path d="M44.7188 25.793L44.5781 26.0918C44.4727 26.3027 44.2793 26.5664 44.0332 26.8652C43.7871 27.1641 43.4707 27.4629 43.1191 27.7793C42.7676 28.0957 42.2578 28.3945 41.625 28.6758C40.9746 28.957 40.2715 29.1328 39.498 29.2207V32.6484H43.8223V51H49.2188V25.793H44.7188ZM59.8535 38.3965C59.8535 35.7598 60.3809 33.7207 61.4531 32.2793C62.5078 30.8379 63.7734 30.1172 65.25 30.1172C66.709 30.1172 67.9746 30.8379 69.0469 32.2793C70.1016 33.7207 70.6465 35.7598 70.6465 38.3965C70.6465 41.0332 70.1016 43.0723 69.0469 44.5137C67.9746 45.9551 66.709 46.6758 65.25 46.6758C63.7734 46.6758 62.5078 45.9551 61.4531 44.5137C60.3809 43.0723 59.8535 41.0332 59.8535 38.3965ZM76.043 38.3965C76.043 34.459 74.9883 31.2949 72.8965 28.8867C70.7871 26.4785 68.2383 25.2656 65.25 25.2656C62.2441 25.2656 59.6953 26.4785 57.6035 28.8867C55.4941 31.2949 54.457 34.459 54.457 38.3965C54.457 42.334 55.4941 45.5156 57.6035 47.9238C59.6953 50.3496 62.2441 51.5449 65.25 51.5449C68.2383 51.5449 70.7871 50.3496 72.8965 47.9238C74.9883 45.5156 76.043 42.334 76.043 38.3965ZM89.543 48.8379V42.7207H95.6777V38.2207H89.543V32.1035H85.4121V38.2207H79.2949V42.7207H85.4121V48.8379H89.543Z" fill="url(#paint2_linear)"/>
<path d="M27.1135 28.3055C26.9445 28.1375 26.7455 28.053 26.5155 28.053C26.401 28.053 26.1595 28.147 25.7925 28.3325C25.425 28.5185 25.035 28.7255 24.6245 28.9565C24.213 29.186 23.726 29.394 23.164 29.58C22.6025 29.7655 22.0825 29.8595 21.604 29.8595C21.162 29.8595 20.772 29.7755 20.436 29.607C19.3215 29.085 18.352 28.6955 17.529 28.4385C16.706 28.182 15.821 28.053 14.8735 28.053C13.2375 28.053 11.374 28.585 9.285 29.647C8.854 29.862 8.545 30.0285 8.345 30.1505L8.1465 28.695C8.595 28.3055 8.8845 27.738 8.8845 27.0975C8.8845 25.924 7.9335 24.973 6.76 24.973C5.5865 24.973 4.6355 25.924 4.6355 27.0975C4.6355 27.863 5.0445 28.5285 5.6515 28.9025L8.5215 49.9475C8.607 50.574 9.143 51.0285 9.7585 51.0285C9.8145 51.0285 9.8715 51.025 9.929 51.0175C10.613 50.9235 11.092 50.294 10.9985 49.61L9.845 41.1515C11.938 40.113 13.7485 39.5895 15.2715 39.5895C15.918 39.5895 16.5485 39.686 17.163 39.881C17.778 40.0765 18.2895 40.2885 18.6965 40.518C19.1035 40.748 19.584 40.961 20.1365 41.155C20.69 41.35 21.2365 41.4475 21.776 41.4475C23.139 41.4475 24.7715 40.934 26.674 39.9075C26.913 39.7835 27.088 39.6615 27.1985 39.542C27.309 39.4225 27.3645 39.2525 27.3645 39.0315V28.903C27.3645 28.6735 27.281 28.474 27.1135 28.3055Z" fill="#F0145A"/>
<path d="M3 2H337" stroke="#E6E6F0" stroke-width="4"/>
<defs>
<linearGradient id="paint0_linear" x1="41.7266" y1="230.76" x2="134.109" y2="231.222" gradientUnits="userSpaceOnUse">
<stop stop-color="#F0145A"/>
<stop offset="1" stop-color="#EF8080"/>
</linearGradient>
<linearGradient id="paint1_linear" x1="43.5156" y1="121.76" x2="109.078" y2="121.993" gradientUnits="userSpaceOnUse">
<stop stop-color="#F0145A"/>
<stop offset="1" stop-color="#EF8080"/>
</linearGradient>
<linearGradient id="paint2_linear" x1="38.4609" y1="28.76" x2="97.0698" y2="28.9459" gradientUnits="userSpaceOnUse">
<stop stop-color="#F0145A"/>
<stop offset="1" stop-color="#EF8080"/>
</linearGradient>
</defs>
</svg>
