<?xml version="1.0" encoding="utf-8"?>
<!-- Generator: Adobe Illustrator 23.1.0, SVG Export Plug-In . SVG Version: 6.00 Build 0)  -->
<svg version="1.1" id="Layer_1" xmlns="http://www.w3.org/2000/svg" xmlns:xlink="http://www.w3.org/1999/xlink" x="0px" y="0px"
	 viewBox="0 0 64 64" style="enable-background:new 0 0 64 64;" xml:space="preserve">
<style type="text/css">
	.st0{fill-rule:evenodd;clip-rule:evenodd;fill:url(#SVGID_1_);}
	.st1{fill-rule:evenodd;clip-rule:evenodd;fill:url(#SVGID_2_);}
	.st2{fill-rule:evenodd;clip-rule:evenodd;fill:url(#SVGID_3_);}
	.st3{fill-rule:evenodd;clip-rule:evenodd;fill:url(#SVGID_4_);}
</style>
<g>
	
		<linearGradient id="SVGID_1_" gradientUnits="userSpaceOnUse" x1="32.0168" y1="30.6975" x2="32.0168" y2="6.1015" gradientTransform="matrix(1 0 0 -1 0 66)">
		<stop  offset="0" style="stop-color:#EF8080"/>
		<stop  offset="1" style="stop-color:#F0145A"/>
	</linearGradient>
	<path class="st0" d="M55,35.3v18.6c0,3.3-2.6,6-5.8,6H14.8c-3.2,0-5.8-2.7-5.8-6V35.3h17.9v8.1l5.1,3.4l5.1-3.4v-8.1H55z"/>
	
		<linearGradient id="SVGID_2_" gradientUnits="userSpaceOnUse" x1="32.0166" y1="30.6975" x2="32.0166" y2="21.4228" gradientTransform="matrix(1 0 0 -1 0 66)">
		<stop  offset="0" style="stop-color:#EF8080"/>
		<stop  offset="1" style="stop-color:#F0145A"/>
	</linearGradient>
	<path class="st1" d="M28.7,35.3v7.1l3.3,2.2l3.3-2.2v-7.1H28.7z"/>
	
		<linearGradient id="SVGID_3_" gradientUnits="userSpaceOnUse" x1="32.0167" y1="52.0856" x2="32.0167" y2="32.9397" gradientTransform="matrix(1 0 0 -1 0 66)">
		<stop  offset="0" style="stop-color:#EF8080"/>
		<stop  offset="1" style="stop-color:#F0145A"/>
	</linearGradient>
	<path class="st2" d="M10.6,13.9h42.8c2,0,3.7,1.8,3.7,4.1v11c0,2.2-1.7,4.1-3.7,4.1H36.6h-9.2H10.6c-2,0-3.7-1.8-3.7-4.1V18
		C6.9,15.7,8.6,13.9,10.6,13.9z"/>
	
		<linearGradient id="SVGID_4_" gradientUnits="userSpaceOnUse" x1="32.0166" y1="61.9441" x2="32.0166" y2="54.2367" gradientTransform="matrix(1 0 0 -1 0 66)">
		<stop  offset="0" style="stop-color:#EF8080"/>
		<stop  offset="1" style="stop-color:#F0145A"/>
	</linearGradient>
	<path class="st3" d="M23.1,4.1h17.8c1.7,0,3,1.4,3,3v4.7h-3.8V9c0-0.7-0.6-1.4-1.4-1.4H25.3c-0.7,0-1.4,0.6-1.4,1.4v2.8h-3.8V7.1
		C20.1,5.4,21.5,4.1,23.1,4.1z"/>
</g>
</svg>
