<?xml version="1.0" encoding="utf-8"?>
<!-- Generator: Adobe Illustrator 23.1.0, SVG Export Plug-In . SVG Version: 6.00 Build 0)  -->
<svg version="1.1" id="Layer_1" xmlns="http://www.w3.org/2000/svg" xmlns:xlink="http://www.w3.org/1999/xlink" x="0px" y="0px"
	 viewBox="0 0 64 64" style="enable-background:new 0 0 64 64;" xml:space="preserve">
<style type="text/css">
	.st0{fill:url(#SVGID_1_);}
	.st1{fill:url(#SVGID_2_);}
</style>
<g>
	<path d="M58.7,37.4c-0.6-0.3-1.3-0.4-2-0.4c-1.5,0-2.9,0.7-3.9,1.7l-1.1-0.5l-3.3-1.4c0.5-1.5,0.7-3.2,0.7-4.9
		c0-1.7-0.3-3.3-0.7-4.9l3.3-1.4l1.1-0.5c1,1.1,2.4,1.7,3.9,1.7c0.7,0,1.4-0.1,2-0.4c2.7-1.1,4-4.2,2.9-6.9c-0.8-2-2.7-3.3-4.9-3.3
		c-0.7,0-1.4,0.1-2,0.4c-2.1,0.9-3.4,3-3.2,5.2l-1.2,0.5L47,23.9c-1.6-2.9-4-5.3-6.9-6.9l1.4-3.3l0.5-1.1c0.1,0,0.2,0,0.3,0
		c2.1,0,4.1-1.3,4.9-3.3c1.1-2.7-0.2-5.8-2.9-6.9c-0.6-0.3-1.3-0.4-2-0.4c-2.1,0-4.1,1.3-4.9,3.3c-0.9,2.1-0.3,4.5,1.3,5.9l-0.5,1.1
		l-1.4,3.3c-1.5-0.5-3.2-0.7-4.9-0.7s-3.3,0.3-4.9,0.7l-1.4-3.3l-0.5-1.1c1.6-1.5,2.2-3.8,1.3-5.9c-0.8-2-2.7-3.3-4.9-3.3
		c-0.7,0-1.4,0.1-2,0.4c-2.7,1.1-4,4.2-2.9,6.9c0.8,2,2.7,3.3,4.9,3.3c0.1,0,0.2,0,0.3,0l0.5,1.1l1.4,3.3c-2.9,1.6-5.3,4-6.9,6.9
		l-3.3-1.4L12.5,22c0.1-2.2-1.1-4.3-3.2-5.2c-0.6-0.3-1.3-0.4-2-0.4c-2.1,0-4.1,1.3-4.9,3.3c-1.1,2.7,0.2,5.8,2.9,6.9
		c0.6,0.3,1.3,0.4,2,0.4c1.5,0,2.9-0.7,3.9-1.7l1.1,0.5l3.3,1.4c-0.5,1.5-0.7,3.2-0.7,4.9c0,1.7,0.2,3.3,0.7,4.9l-3.3,1.4l-1.1,0.5
		c-1-1.1-2.4-1.7-3.9-1.7c-0.7,0-1.4,0.1-2,0.4c-2.7,1.1-4,4.2-2.9,6.9c0.8,2,2.7,3.3,4.9,3.3c0.7,0,1.4-0.1,2-0.4
		c2.1-0.9,3.4-3,3.2-5.2l1.2-0.5l3.3-1.4c1.6,2.9,4,5.3,6.9,6.9l-1.4,3.3L22,51.5c-0.1,0-0.2,0-0.3,0c-2.1,0-4.1,1.3-4.9,3.3
		c-1.1,2.7,0.2,5.8,2.9,6.9c0.6,0.3,1.3,0.4,2,0.4c2.1,0,4.1-1.3,4.9-3.3c0.9-2.1,0.3-4.5-1.3-5.9l0.5-1.1l1.4-3.3
		c1.5,0.5,3.2,0.7,4.9,0.7c1.7,0,3.3-0.2,4.9-0.7l1.4,3.3l0.5,1.1c-1.6,1.5-2.2,3.8-1.3,5.9c0.8,2,2.7,3.3,4.9,3.3
		c0.7,0,1.4-0.1,2-0.4c2.7-1.1,4-4.2,2.9-6.9c-0.8-2-2.7-3.3-4.9-3.3c-0.1,0-0.2,0-0.3,0l-0.5-1.1L40.1,47c2.9-1.6,5.3-4,6.9-6.9
		l3.3,1.4l1.2,0.5c-0.1,2.2,1.1,4.3,3.2,5.2c0.6,0.3,1.3,0.4,2,0.4c2.1,0,4.1-1.3,4.9-3.3C62.7,41.6,61.4,38.5,58.7,37.4z M32,45.6
		c-7.5,0-13.6-6.1-13.6-13.6S24.5,18.4,32,18.4c7.5,0,13.6,6.1,13.6,13.6S39.5,45.6,32,45.6z"/>
	
		<linearGradient id="SVGID_1_" gradientUnits="userSpaceOnUse" x1="31.9999" y1="64.0011" x2="31.9999" y2="3.9989" gradientTransform="matrix(1 0 0 -1 0 66)">
		<stop  offset="0" style="stop-color:#EF8080"/>
		<stop  offset="1" style="stop-color:#F0145A"/>
	</linearGradient>
	<path class="st0" d="M58.7,37.4c-0.6-0.3-1.3-0.4-2-0.4c-1.5,0-2.9,0.7-3.9,1.7l-1.1-0.5l-3.3-1.4c0.5-1.5,0.7-3.2,0.7-4.9
		c0-1.7-0.3-3.3-0.7-4.9l3.3-1.4l1.1-0.5c1,1.1,2.4,1.7,3.9,1.7c0.7,0,1.4-0.1,2-0.4c2.7-1.1,4-4.2,2.9-6.9c-0.8-2-2.7-3.3-4.9-3.3
		c-0.7,0-1.4,0.1-2,0.4c-2.1,0.9-3.4,3-3.2,5.2l-1.2,0.5L47,23.9c-1.6-2.9-4-5.3-6.9-6.9l1.4-3.3l0.5-1.1c0.1,0,0.2,0,0.3,0
		c2.1,0,4.1-1.3,4.9-3.3c1.1-2.7-0.2-5.8-2.9-6.9c-0.6-0.3-1.3-0.4-2-0.4c-2.1,0-4.1,1.3-4.9,3.3c-0.9,2.1-0.3,4.5,1.3,5.9l-0.5,1.1
		l-1.4,3.3c-1.5-0.5-3.2-0.7-4.9-0.7s-3.3,0.3-4.9,0.7l-1.4-3.3l-0.5-1.1c1.6-1.5,2.2-3.8,1.3-5.9c-0.8-2-2.7-3.3-4.9-3.3
		c-0.7,0-1.4,0.1-2,0.4c-2.7,1.1-4,4.2-2.9,6.9c0.8,2,2.7,3.3,4.9,3.3c0.1,0,0.2,0,0.3,0l0.5,1.1l1.4,3.3c-2.9,1.6-5.3,4-6.9,6.9
		l-3.3-1.4L12.5,22c0.1-2.2-1.1-4.3-3.2-5.2c-0.6-0.3-1.3-0.4-2-0.4c-2.1,0-4.1,1.3-4.9,3.3c-1.1,2.7,0.2,5.8,2.9,6.9
		c0.6,0.3,1.3,0.4,2,0.4c1.5,0,2.9-0.7,3.9-1.7l1.1,0.5l3.3,1.4c-0.5,1.5-0.7,3.2-0.7,4.9c0,1.7,0.2,3.3,0.7,4.9l-3.3,1.4l-1.1,0.5
		c-1-1.1-2.4-1.7-3.9-1.7c-0.7,0-1.4,0.1-2,0.4c-2.7,1.1-4,4.2-2.9,6.9c0.8,2,2.7,3.3,4.9,3.3c0.7,0,1.4-0.1,2-0.4
		c2.1-0.9,3.4-3,3.2-5.2l1.2-0.5l3.3-1.4c1.6,2.9,4,5.3,6.9,6.9l-1.4,3.3L22,51.5c-0.1,0-0.2,0-0.3,0c-2.1,0-4.1,1.3-4.9,3.3
		c-1.1,2.7,0.2,5.8,2.9,6.9c0.6,0.3,1.3,0.4,2,0.4c2.1,0,4.1-1.3,4.9-3.3c0.9-2.1,0.3-4.5-1.3-5.9l0.5-1.1l1.4-3.3
		c1.5,0.5,3.2,0.7,4.9,0.7c1.7,0,3.3-0.2,4.9-0.7l1.4,3.3l0.5,1.1c-1.6,1.5-2.2,3.8-1.3,5.9c0.8,2,2.7,3.3,4.9,3.3
		c0.7,0,1.4-0.1,2-0.4c2.7-1.1,4-4.2,2.9-6.9c-0.8-2-2.7-3.3-4.9-3.3c-0.1,0-0.2,0-0.3,0l-0.5-1.1L40.1,47c2.9-1.6,5.3-4,6.9-6.9
		l3.3,1.4l1.2,0.5c-0.1,2.2,1.1,4.3,3.2,5.2c0.6,0.3,1.3,0.4,2,0.4c2.1,0,4.1-1.3,4.9-3.3C62.7,41.6,61.4,38.5,58.7,37.4z M32,45.6
		c-7.5,0-13.6-6.1-13.6-13.6S24.5,18.4,32,18.4c7.5,0,13.6,6.1,13.6,13.6S39.5,45.6,32,45.6z"/>
	<path d="M32,21.9c-5.6,0-10.1,4.5-10.1,10.1S26.4,42.1,32,42.1S42.1,37.6,42.1,32S37.6,21.9,32,21.9z M33.8,35.9h-3.5v-7.7h3.5
		V35.9z"/>
	
		<linearGradient id="SVGID_2_" gradientUnits="userSpaceOnUse" x1="32.0001" y1="44.0787" x2="32.0001" y2="23.9218" gradientTransform="matrix(1 0 0 -1 0 66)">
		<stop  offset="0" style="stop-color:#EF8080"/>
		<stop  offset="1" style="stop-color:#F0145A"/>
	</linearGradient>
	<path class="st1" d="M32,21.9c-5.6,0-10.1,4.5-10.1,10.1S26.4,42.1,32,42.1S42.1,37.6,42.1,32S37.6,21.9,32,21.9z M33.8,35.9h-3.5
		v-7.7h3.5V35.9z"/>
</g>
</svg>
