<?xml version="1.0" encoding="utf-8"?>
<!-- Generator: Adobe Illustrator 23.1.0, SVG Export Plug-In . SVG Version: 6.00 Build 0)  -->
<svg version="1.1" id="Layer_1" xmlns="http://www.w3.org/2000/svg" xmlns:xlink="http://www.w3.org/1999/xlink" x="0px" y="0px"
	 viewBox="0 0 64 64" style="enable-background:new 0 0 64 64;" xml:space="preserve">
<style type="text/css">
	.st0{fill:url(#SVGID_1_);}
	.st1{fill:url(#SVGID_2_);}
	.st2{fill:url(#SVGID_3_);}
	.st3{fill:url(#SVGID_4_);}
	.st4{fill:url(#SVGID_5_);}
</style>
<g>
	<path d="M41.9,55.8h-19v6h19V55.8z"/>
	
		<linearGradient id="SVGID_1_" gradientUnits="userSpaceOnUse" x1="32.363" y1="10.1609" x2="32.363" y2="4.1609" gradientTransform="matrix(1 0 0 -1 0 66)">
		<stop  offset="0" style="stop-color:#EF8080"/>
		<stop  offset="1" style="stop-color:#F0145A"/>
	</linearGradient>
	<path class="st0" d="M41.9,55.8h-19v6h19V55.8z"/>
	<path d="M15,2.3L1.6,15.7l3.5,3.5L18.6,5.8L15,2.3z"/>
	
		<linearGradient id="SVGID_2_" gradientUnits="userSpaceOnUse" x1="8.3124" y1="56.9912" x2="11.8481" y2="53.4555" gradientTransform="matrix(1 0 0 -1 0 66)">
		<stop  offset="0" style="stop-color:#EF8080"/>
		<stop  offset="1" style="stop-color:#F0145A"/>
	</linearGradient>
	<path class="st1" d="M15,2.3L1.6,15.7l3.5,3.5L18.6,5.8L15,2.3z"/>
	<path d="M49,2.2l-3.5,3.5l13.4,13.4l3.5-3.5L49,2.2z"/>
	
		<linearGradient id="SVGID_3_" gradientUnits="userSpaceOnUse" x1="47.2022" y1="62.0714" x2="60.6373" y2="48.6363" gradientTransform="matrix(1 0 0 -1 0 66)">
		<stop  offset="0" style="stop-color:#EF8080"/>
		<stop  offset="1" style="stop-color:#F0145A"/>
	</linearGradient>
	<path class="st2" d="M49,2.2l-3.5,3.5l13.4,13.4l3.5-3.5L49,2.2z"/>
	<path d="M44.4,9.5l-2.7-0.1c-0.8-0.1-1.6,0-2.3,0.2c-0.7,0.2-1.4,0.7-2,1.2l-5.5,5.5l-5.8-5.8c-0.5-0.5-1.1-0.8-1.8-1
		c-0.7-0.2-1.4-0.1-2.1,0.1c-0.6,0.2-1.3,0.2-1.9,0c-0.6-0.2-1.2-0.5-1.7-1l-0.9-0.9L7.3,18.6L9,20.3L8.9,23c-0.1,0.8,0,1.6,0.2,2.3
		c0.2,0.7,0.7,1.4,1.2,2l9.6,9.6c0.1-1.3,0.7-2.4,1.7-3.3l-3-3l0.7-0.7l3.1,3.1c0.4-0.3,0.9-0.4,1.4-0.5v-3.7l-1.7-1.7l0.7-0.7l1,1
		V22c0-0.9,0.3-1.7,0.9-2.4c0.6-0.7,1.4-1.1,2.3-1.2c0.3,0,0.7,0,1,0l-1.2-1.2l0.7-0.7l1.8,1.8c0.3-0.6,0.8-1.1,1.4-1.5
		c0.6-0.3,1.3-0.5,2-0.4c0.8,0.1,1.6,0.5,2.2,1.1c0.6,0.6,0.9,1.4,1,2.2c0.6-0.3,1.2-0.4,1.8-0.3c0.9,0.1,1.7,0.5,2.3,1.2
		c0.6,0.7,0.9,1.5,0.9,2.4v3.4c0.9,0.2,1.7,0.6,2.4,1.3c0.7,0.6,1.2,1.5,1.4,2.4l2.8-2.8l0.7,0.7l-3.3,3.3c0,0,0,0,0,0v3.3
		c0.9-0.1,1.7-0.5,2.4-1.1l6.8-6.8c0.5-0.5,0.8-1.1,1-1.8c0.2-0.7,0.1-1.4-0.1-2.1c-0.2-0.6-0.2-1.3,0-1.9c0.2-0.6,0.5-1.2,1-1.7
		l0.9-0.9L46.1,7.8L44.4,9.5z"/>
	
		<linearGradient id="SVGID_4_" gradientUnits="userSpaceOnUse" x1="32" y1="58.1823" x2="32" y2="29.1304" gradientTransform="matrix(1 0 0 -1 0 66)">
		<stop  offset="0" style="stop-color:#EF8080"/>
		<stop  offset="1" style="stop-color:#F0145A"/>
	</linearGradient>
	<path class="st3" d="M44.4,9.5l-2.7-0.1c-0.8-0.1-1.6,0-2.3,0.2c-0.7,0.2-1.4,0.7-2,1.2l-5.5,5.5l-5.8-5.8c-0.5-0.5-1.1-0.8-1.8-1
		c-0.7-0.2-1.4-0.1-2.1,0.1c-0.6,0.2-1.3,0.2-1.9,0c-0.6-0.2-1.2-0.5-1.7-1l-0.9-0.9L7.3,18.6L9,20.3L8.9,23c-0.1,0.8,0,1.6,0.2,2.3
		c0.2,0.7,0.7,1.4,1.2,2l9.6,9.6c0.1-1.3,0.7-2.4,1.7-3.3l-3-3l0.7-0.7l3.1,3.1c0.4-0.3,0.9-0.4,1.4-0.5v-3.7l-1.7-1.7l0.7-0.7l1,1
		V22c0-0.9,0.3-1.7,0.9-2.4c0.6-0.7,1.4-1.1,2.3-1.2c0.3,0,0.7,0,1,0l-1.2-1.2l0.7-0.7l1.8,1.8c0.3-0.6,0.8-1.1,1.4-1.5
		c0.6-0.3,1.3-0.5,2-0.4c0.8,0.1,1.6,0.5,2.2,1.1c0.6,0.6,0.9,1.4,1,2.2c0.6-0.3,1.2-0.4,1.8-0.3c0.9,0.1,1.7,0.5,2.3,1.2
		c0.6,0.7,0.9,1.5,0.9,2.4v3.4c0.9,0.2,1.7,0.6,2.4,1.3c0.7,0.6,1.2,1.5,1.4,2.4l2.8-2.8l0.7,0.7l-3.3,3.3c0,0,0,0,0,0v3.3
		c0.9-0.1,1.7-0.5,2.4-1.1l6.8-6.8c0.5-0.5,0.8-1.1,1-1.8c0.2-0.7,0.1-1.4-0.1-2.1c-0.2-0.6-0.2-1.3,0-1.9c0.2-0.6,0.5-1.2,1-1.7
		l0.9-0.9L46.1,7.8L44.4,9.5z"/>
	<path d="M29.7,21.5c-0.1-0.6-0.4-1.2-0.9-1.7c-0.5-0.4-1.2-0.6-1.8-0.5c-0.6,0.1-1.2,0.4-1.6,0.9c-0.4,0.5-0.6,1.1-0.6,1.7v11.4
		c-1.1,0-2.1,0.4-2.8,1.2c-0.8,0.8-1.2,1.8-1.2,2.8V47c0,0.7,0.2,1.4,0.6,2c0.4,0.6,0.9,1.1,1.5,1.4c0.6,0.3,1.1,0.8,1.4,1.3
		c0.3,0.6,0.5,1.2,0.5,1.9v1.2h15v-2.4l2-1.8c0.6-0.5,1.1-1.1,1.5-1.8c0.3-0.7,0.5-1.5,0.5-2.3V31.3c0-1.1-0.4-2.1-1.2-2.8
		c-0.8-0.8-1.8-1.2-2.8-1.2V23c0-0.6-0.2-1.3-0.6-1.8c-0.4-0.5-1-0.8-1.6-0.9c-0.6-0.1-1.3,0.1-1.8,0.5c-0.5,0.4-0.8,1-0.9,1.6h0.5
		v15.4h-1V22.4h0.5V20c0-0.6-0.2-1.3-0.6-1.8c-0.4-0.5-1-0.8-1.6-0.9c-0.3,0-0.7,0-1,0.1c-0.3,0.1-0.6,0.3-0.9,0.5
		c-0.3,0.2-0.5,0.5-0.6,0.8c-0.1,0.3-0.2,0.7-0.2,1L29.7,21.5h0.5V37h-1V21.5H29.7z M25.2,41.9h-1v-8h1V41.9z M39.3,27.6h1v10.4h-1
		V27.6z"/>
	
		<linearGradient id="SVGID_5_" gradientUnits="userSpaceOnUse" x1="32.2697" y1="48.6732" x2="32.2697" y2="11.2294" gradientTransform="matrix(1 0 0 -1 0 66)">
		<stop  offset="0" style="stop-color:#EF8080"/>
		<stop  offset="1" style="stop-color:#F0145A"/>
	</linearGradient>
	<path class="st4" d="M29.7,21.5c-0.1-0.6-0.4-1.2-0.9-1.7c-0.5-0.4-1.2-0.6-1.8-0.5c-0.6,0.1-1.2,0.4-1.6,0.9
		c-0.4,0.5-0.6,1.1-0.6,1.7v11.4c-1.1,0-2.1,0.4-2.8,1.2c-0.8,0.8-1.2,1.8-1.2,2.8V47c0,0.7,0.2,1.4,0.6,2c0.4,0.6,0.9,1.1,1.5,1.4
		c0.6,0.3,1.1,0.8,1.4,1.3c0.3,0.6,0.5,1.2,0.5,1.9v1.2h15v-2.4l2-1.8c0.6-0.5,1.1-1.1,1.5-1.8c0.3-0.7,0.5-1.5,0.5-2.3V31.3
		c0-1.1-0.4-2.1-1.2-2.8c-0.8-0.8-1.8-1.2-2.8-1.2V23c0-0.6-0.2-1.3-0.6-1.8c-0.4-0.5-1-0.8-1.6-0.9c-0.6-0.1-1.3,0.1-1.8,0.5
		c-0.5,0.4-0.8,1-0.9,1.6h0.5v15.4h-1V22.4h0.5V20c0-0.6-0.2-1.3-0.6-1.8c-0.4-0.5-1-0.8-1.6-0.9c-0.3,0-0.7,0-1,0.1
		c-0.3,0.1-0.6,0.3-0.9,0.5c-0.3,0.2-0.5,0.5-0.6,0.8c-0.1,0.3-0.2,0.7-0.2,1L29.7,21.5h0.5V37h-1V21.5H29.7z M25.2,41.9h-1v-8h1
		V41.9z M39.3,27.6h1v10.4h-1V27.6z"/>
</g>
</svg>
