<?xml version="1.0" encoding="utf-8"?>
<!-- Generator: Adobe Illustrator 23.1.0, SVG Export Plug-In . SVG Version: 6.00 Build 0)  -->
<svg version="1.1" id="Layer_1" xmlns="http://www.w3.org/2000/svg" xmlns:xlink="http://www.w3.org/1999/xlink" x="0px" y="0px"
	 viewBox="0 0 64 64" style="enable-background:new 0 0 64 64;" xml:space="preserve">
<style type="text/css">
	.st0{fill:url(#SVGID_1_);}
	.st1{fill:url(#SVGID_2_);}
	.st2{fill:url(#SVGID_3_);}
	.st3{fill:url(#SVGID_4_);}
</style>
<linearGradient id="SVGID_1_" gradientUnits="userSpaceOnUse" x1="41.8593" y1="65.0787" x2="41.8593" y2="48.274" gradientTransform="matrix(1 0 0 -1 0 66)">
	<stop  offset="0" style="stop-color:#EF8080"/>
	<stop  offset="1" style="stop-color:#F0145A"/>
</linearGradient>
<path class="st0" d="M42.7,17c1,1,2.5,1,3.4,0l3.4-3.4c0.9-1,0.9-2.5,0-3.4L41,1.6c-0.9-1-2.5-1-3.4,0L34.2,5c-0.9,1-0.9,2.5,0,3.4
	L42.7,17z"/>
<linearGradient id="SVGID_2_" gradientUnits="userSpaceOnUse" x1="21.6155" y1="44.4582" x2="21.6155" y2="27.6558" gradientTransform="matrix(1 0 0 -1 0 66)">
	<stop  offset="0" style="stop-color:#EF8080"/>
	<stop  offset="1" style="stop-color:#F0145A"/>
</linearGradient>
<path class="st1" d="M22.5,37.6c0.9,0.9,2.5,0.9,3.4,0l3.4-3.4c1-0.9,1-2.5,0-3.4l-8.5-8.5c-0.9-0.9-2.5-1-3.4,0l-3.4,3.4
	c-1,1-0.9,2.5,0,3.4L22.5,37.6z"/>
<linearGradient id="SVGID_3_" gradientUnits="userSpaceOnUse" x1="42.2514" y1="55.9391" x2="42.2514" y2="16.5177" gradientTransform="matrix(1 0 0 -1 0 66)">
	<stop  offset="0" style="stop-color:#EF8080"/>
	<stop  offset="1" style="stop-color:#F0145A"/>
</linearGradient>
<path class="st2" d="M61.3,38.4L57.8,35c-1-0.9-2.5-0.9-3.4,0l-1.5,1.5L38.3,22l3.2-3.2l-8.7-8.7l-3.2,3.2l-4,4l-3.1,3.1l8.7,8.7
	l3.1-3.1l14.6,14.6l-1.4,1.4c-1,0.9-1,2.5,0,3.4l3.4,3.4c1,1,2.5,1,3.4,0l6.9-6.9C62.2,40.9,62.2,39.4,61.3,38.4z"/>
<linearGradient id="SVGID_4_" gradientUnits="userSpaceOnUse" x1="21.8436" y1="19.921" x2="21.8436" y2="2.9212" gradientTransform="matrix(1 0 0 -1 0 66)">
	<stop  offset="0" style="stop-color:#EF8080"/>
	<stop  offset="1" style="stop-color:#F0145A"/>
</linearGradient>
<path class="st3" d="M35.9,48.9c0-1.6-1.3-2.8-2.8-2.8H11c-1.6,0-2.8,1.3-2.8,2.8v4.6H2v9.6h39.7v-9.6h-5.8V48.9z"/>
</svg>
