<?xml version="1.0" encoding="utf-8"?>
<!-- Generator: Adobe Illustrator 23.1.0, SVG Export Plug-In . SVG Version: 6.00 Build 0)  -->
<svg version="1.1" id="Layer_1" xmlns="http://www.w3.org/2000/svg" xmlns:xlink="http://www.w3.org/1999/xlink" x="0px" y="0px"
	 viewBox="0 0 64 64" style="enable-background:new 0 0 64 64;" xml:space="preserve">
<style type="text/css">
	.st0{fill:url(#SVGID_1_);}
	.st1{fill:url(#SVGID_2_);}
</style>
<g>
	
		<linearGradient id="SVGID_1_" gradientUnits="userSpaceOnUse" x1="32" y1="64" x2="32" y2="11.3218" gradientTransform="matrix(1 0 0 -1 0 66)">
		<stop  offset="0" style="stop-color:#EF8080"/>
		<stop  offset="1" style="stop-color:#F0145A"/>
	</linearGradient>
	<path class="st0" d="M41.4,35.8c2.4,0,4.8,0.6,6.8,1.7c0.4,0.2,0.7,0.4,1.1,0.7c3.4-6.7,5.2-13.7,5.2-20.6c0-0.4,0-0.8,0-1.2
		c0-0.6-0.4-1-1-1.2c-7.5-1.6-14.4-5.7-19.8-11.8l-0.8-0.9C32.7,2.2,32.4,2,32,2c-0.4,0-0.7,0.1-0.9,0.4l-1.2,1.3
		C24.8,9.4,18.3,13.2,11.3,15l-0.8,0.2c-0.5,0.1-0.9,0.6-0.9,1.2c-0.4,17.6,9.9,30.2,14.4,34.8c1.2,1.2,2.6,2.5,3.8,3.5
		c-0.5-1.5-0.8-3-0.8-4.6C27,42.2,33.4,35.8,41.4,35.8z"/>
	
		<linearGradient id="SVGID_2_" gradientUnits="userSpaceOnUse" x1="41.3745" y1="27.7468" x2="41.3745" y2="4" gradientTransform="matrix(1 0 0 -1 0 66)">
		<stop  offset="0" style="stop-color:#EF8080"/>
		<stop  offset="1" style="stop-color:#F0145A"/>
	</linearGradient>
	<path class="st1" d="M47,39.7c-1.7-0.9-3.7-1.4-5.6-1.4c-6.5,0-11.9,5.3-11.9,11.9c0,2.2,0.6,4.4,1.7,6.2c2.2,3.5,6,5.6,10.1,5.6
		c6.5,0,11.9-5.3,11.9-11.9C53.2,45.8,50.9,41.8,47,39.7z M47.5,48.5l-9.3,7.2l-3.2-5c-0.4-0.6-0.2-1.4,0.4-1.7
		c0.6-0.4,1.4-0.2,1.7,0.4l1.7,2.6l7.1-5.5c0.5-0.4,1.3-0.3,1.8,0.2C48.1,47.3,48,48.1,47.5,48.5z"/>
</g>
</svg>
