<?xml version="1.0" encoding="utf-8"?>
<!-- Generator: Adobe Illustrator 23.1.0, SVG Export Plug-In . SVG Version: 6.00 Build 0)  -->
<svg version="1.1" id="Layer_1" xmlns="http://www.w3.org/2000/svg" xmlns:xlink="http://www.w3.org/1999/xlink" x="0px" y="0px"
	 viewBox="0 0 64 64" style="enable-background:new 0 0 64 64;" xml:space="preserve">
<style type="text/css">
	.st0{fill:url(#SVGID_1_);}
	.st1{fill:url(#SVGID_2_);}
	.st2{fill:#FFFFFF;}
</style>
<g>
	
		<linearGradient id="SVGID_1_" gradientUnits="userSpaceOnUse" x1="32.0736" y1="64.2647" x2="32.0736" y2="38.8865" gradientTransform="matrix(1 0 0 -1 0 66)">
		<stop  offset="0" style="stop-color:#EF8080"/>
		<stop  offset="1" style="stop-color:#F0145A"/>
	</linearGradient>
	<path class="st0" d="M21.6,27.1c1.4,0,2.5-1.1,2.5-2.5v-9.8c0-4.4,3.6-8,8-8s8,3.6,8,8v9.8c0,1.4,1.1,2.5,2.5,2.5
		c1.4,0,2.5-1.1,2.5-2.5v-9.8c0-7.2-5.8-13-13-13c-7.2,0-13,5.8-13,13v9.8C19.1,26,20.2,27.1,21.6,27.1z"/>
	
		<linearGradient id="SVGID_2_" gradientUnits="userSpaceOnUse" x1="32" y1="44.5536" x2="32" y2="3.7352" gradientTransform="matrix(1 0 0 -1 0 66)">
		<stop  offset="0" style="stop-color:#EF8080"/>
		<stop  offset="1" style="stop-color:#F0145A"/>
	</linearGradient>
	<path class="st1" d="M61,21.4H47.6v3.1c0,2.8-2.3,5-5,5s-5-2.3-5-5v-3.1H26.6v3.1c0,2.8-2.3,5-5,5c-2.8,0-5-2.3-5-5v-3.1H3
		c-0.7,0-1.1,0.5-1,1.2l8.8,35.9c0.5,2,2.7,3.7,4.7,3.7h32.8c2.1,0,4.2-1.6,4.7-3.7L62,22.7C62.1,22,61.7,21.4,61,21.4z"/>
	<path class="st2" d="M27.7,35c0-1,0.8-1.8,1.8-1.8c1,0,1.8,0.8,1.8,1.8v8.8v-1.7c0-1,0.8-1.8,1.8-1.8c1,0,1.8,0.8,1.8,1.8v2.1
		c0-1,0.8-3,1.8-3c1,0,1.8,0.8,1.8,1.8c0,0,0.1,1.3,0.2,1.4c0.3-0.6,0.9-2.3,1.6-2.3c1,0,1.8,0.8,1.8,1.8v8.8c0,1.9-1.6,3.5-3.5,3.5
		h-5.9c-1.9,0-3.7-0.7-5-2.1l-2.8-2.8l-4-1.8c0-1.7,1.3-2.2,2.6-2.2c1.1,0,2.2,0.2,4.4,1.3L27.7,35z"/>
</g>
</svg>
